var fontJSON2 =
{"glyphs":{"0":{"ha":1221,"x_min":13,"x_max":1193,"o":"m 124 804 l 83 804 l 83 736 l 46 736 l 46 804 l 13 804 l 13 825 l 46 825 l 46 838 l 69 838 l 69 856 l 124 856 l 124 838 l 83 838 l 83 825 l 124 825 l 124 804 m 386 736 l 342 736 l 342 819 l 308 819 l 308 736 l 271 736 l 271 836 l 367 836 l 367 819 q 386 819 374 821 l 386 736 m 160 836 l 231 836 l 231 819 q 251 819 238 821 l 251 753 l 231 753 l 231 736 l 160 736 l 160 753 l 138 753 l 138 819 l 161 819 l 160 836 m 439 853 l 476 853 l 476 833 l 518 833 l 518 814 l 481 814 q 482 753 482 756 l 518 754 l 518 736 l 458 736 l 458 754 l 439 754 l 439 814 l 404 814 l 404 833 l 439 833 l 439 853 m 892 824 l 835 824 l 835 842 l 892 842 l 892 824 m 1096 756 l 1078 756 l 1078 771 l 1096 771 l 1096 756 m 835 811 l 814 811 l 814 736 l 776 736 l 776 842 l 814 842 l 814 829 q 835 824 822 829 l 835 811 m 1094 807 q 1078 808 1089 806 l 1078 819 l 1096 819 l 1096 839 l 1172 839 l 1172 819 l 1115 819 l 1115 808 l 1149 808 l 1149 789 l 1172 789 l 1172 771 l 1193 771 l 1193 756 l 1172 756 l 1172 736 l 1096 736 l 1096 756 l 1149 756 q 1151 764 1153 758 q 1149 771 1149 768 l 1115 771 l 1115 789 l 1096 789 l 1094 807 m 1193 808 l 1172 808 l 1172 819 l 1193 819 l 1193 808 m 638 736 l 564 736 l 564 838 l 601 838 l 601 758 l 638 758 l 638 736 m 676 769 l 657 769 l 657 758 l 638 758 l 638 838 l 676 838 l 676 769 m 739 825 l 706 825 l 706 851 l 739 851 l 739 825 m 739 736 l 706 736 l 706 804 l 739 804 l 739 736 m 1014 758 l 1014 838 l 1054 838 l 1054 736 l 963 736 l 963 758 l 943 758 l 943 838 l 976 838 l 976 758 l 1014 758 m 913 736 l 879 736 l 879 765 l 913 765 l 913 736 m 1132 239 l 1025 219 l 949 392 l 842 364 l 900 197 l 786 176 l 818 58 l 600 31 l 586 136 l 785 172 l 758 267 l 353 174 l 351 92 l 501 119 l 508 19 l 349 -3 l 351 96 l 279 82 l 288 218 l 235 203 l 219 69 l 169 60 l 197 264 l 238 278 l 244 340 l 297 358 l 300 404 l 358 425 l 358 481 l 304 460 l 307 508 l 360 531 l 358 481 l 415 504 l 417 447 l 604 517 l 593 575 l 664 603 l 650 654 l 728 688 l 746 636 l 665 604 l 681 544 l 768 575 l 786 525 l 872 556 l 904 482 l 992 508 l 1132 239 m 724 429 l 704 497 l 606 464 l 618 397 l 724 429 m 428 338 l 425 403 l 350 376 l 349 314 l 428 338 z "},"1":{"ha":1522,"x_min":36,"x_max":1417,"o":"m 175 567 l 38 567 l 38 603 l 83 603 l 83 792 l 38 792 l 38 831 l 175 831 l 175 793 l 131 793 l 131 604 l 175 604 l 175 567 m 354 567 l 308 567 l 308 601 l 286 601 l 286 640 l 264 640 l 264 678 l 240 678 l 240 567 l 193 567 l 193 831 l 239 831 l 239 793 l 263 793 l 263 756 l 286 756 l 286 718 l 308 718 l 308 831 l 354 831 l 354 567 m 532 681 l 510 681 l 510 642 l 486 642 l 486 604 l 464 604 l 464 567 l 440 567 l 440 601 l 417 601 l 417 640 l 393 640 l 393 676 l 369 676 l 369 831 l 415 831 l 415 719 l 439 719 l 439 679 l 461 679 l 461 717 l 486 717 l 486 831 l 532 831 l 532 681 m 706 567 l 660 567 l 660 642 l 592 642 l 592 567 l 546 567 l 546 753 l 567 753 l 567 792 l 590 792 l 590 831 l 658 831 l 658 793 l 682 793 l 682 756 l 706 756 l 706 567 m 658 681 l 658 756 l 636 756 l 636 792 l 614 792 l 614 753 l 592 753 l 592 681 l 658 681 m 883 642 l 861 642 l 861 604 l 839 604 l 839 567 l 724 567 l 724 831 l 838 831 l 838 793 l 861 793 l 861 756 l 883 756 l 883 642 m 838 642 l 838 756 l 814 756 l 814 792 l 769 792 l 769 604 l 815 604 l 815 642 l 838 642 m 1061 568 l 897 568 l 897 835 l 1061 835 l 1061 797 l 944 797 l 944 721 l 1014 721 l 1014 682 l 944 682 l 944 607 l 1061 607 l 1061 568 m 1238 686 l 1193 686 l 1193 647 l 1215 647 l 1215 610 l 1238 610 l 1238 571 l 1169 571 l 1169 608 l 1147 608 l 1147 647 l 1125 647 l 1125 571 l 1078 571 l 1078 835 l 1215 835 l 1215 797 l 1238 797 l 1238 686 m 1192 722 l 1192 797 l 1125 797 l 1125 686 l 1169 686 l 1169 722 l 1192 722 m 1417 604 l 1394 604 l 1394 567 l 1279 567 l 1279 601 l 1256 601 l 1256 642 l 1301 642 l 1301 604 l 1371 604 l 1371 676 l 1279 676 l 1279 715 l 1256 715 l 1256 792 l 1278 792 l 1278 831 l 1369 831 l 1369 793 l 1393 793 l 1393 754 l 1347 754 l 1347 792 l 1303 792 l 1303 719 l 1393 719 l 1393 681 l 1417 681 l 1417 604 m 290 56 l 254 56 l 254 13 l 75 13 l 75 53 l 38 53 l 38 97 l 108 97 l 108 56 l 218 56 l 218 139 l 75 139 l 75 182 l 38 182 l 38 268 l 72 268 l 72 310 l 218 310 l 218 269 l 253 269 l 253 226 l 182 226 l 182 268 l 110 268 l 110 185 l 253 185 l 253 142 l 290 142 l 290 56 m 558 140 l 524 140 l 524 97 l 379 97 l 379 13 l 306 13 l 306 310 l 521 310 l 521 269 l 558 269 l 558 140 m 486 140 l 486 268 l 378 268 l 378 140 l 486 140 m 836 13 l 764 13 l 764 97 l 657 97 l 657 13 l 583 13 l 583 225 l 618 225 l 618 268 l 654 268 l 654 310 l 764 310 l 764 269 l 800 269 l 800 226 l 836 226 l 836 13 m 764 140 l 764 226 l 726 226 l 726 268 l 690 268 l 690 225 l 656 225 l 656 140 l 764 140 m 1108 226 l 1038 226 l 1038 268 l 967 268 l 967 226 l 929 226 l 929 99 l 964 99 l 964 56 l 1036 56 l 1036 97 l 1108 97 l 1108 56 l 1074 56 l 1074 13 l 929 13 l 929 53 l 893 53 l 893 96 l 857 96 l 857 225 l 892 225 l 892 268 l 926 268 l 926 310 l 1072 310 l 1072 269 l 1108 269 l 1108 226 m 1397 8 l 1142 8 l 1142 308 l 1397 308 l 1397 268 l 1214 268 l 1214 182 l 1324 182 l 1324 138 l 1214 138 l 1214 53 l 1397 53 l 1397 8 m 353 492 l 131 492 l 131 442 l 306 442 l 306 415 l 132 415 l 132 340 l 36 340 l 36 518 l 353 518 l 353 492 m 713 415 l 619 415 l 619 392 l 664 392 l 664 365 l 713 365 l 713 340 l 572 340 l 572 364 l 525 364 l 525 390 l 481 390 l 481 340 l 385 340 l 385 518 l 664 518 l 664 492 l 713 492 l 713 415 m 618 442 l 618 492 l 478 492 l 478 415 l 572 415 l 572 442 l 618 442 m 1060 365 l 1017 365 l 1017 340 l 781 340 l 781 364 l 733 364 l 733 492 l 778 492 l 778 518 l 1014 518 l 1014 492 l 1060 492 l 1060 365 m 968 365 l 968 492 l 826 492 l 826 365 l 968 365 m 1407 340 l 1314 340 l 1314 415 l 1269 415 l 1269 392 l 1222 392 l 1222 415 l 1176 415 l 1176 340 l 1081 340 l 1081 518 l 1174 518 l 1174 492 l 1219 492 l 1219 468 l 1265 468 l 1265 492 l 1313 492 l 1313 518 l 1407 518 l 1407 340 z "},"2":{"ha":1221,"x_min":13,"x_max":1193,"o":"m 124 804 l 83 804 l 83 736 l 46 736 l 46 804 l 13 804 l 13 825 l 46 825 l 46 838 l 69 838 l 69 856 l 124 856 l 124 838 l 83 838 l 83 825 l 124 825 l 124 804 m 386 736 l 342 736 l 342 819 l 308 819 l 308 736 l 271 736 l 271 836 l 367 836 l 367 819 q 386 819 374 821 l 386 736 m 160 836 l 231 836 l 231 819 q 251 819 238 821 l 251 753 l 231 753 l 231 736 l 160 736 l 160 753 l 138 753 l 138 819 l 161 819 l 160 836 m 439 853 l 476 853 l 476 833 l 518 833 l 518 814 l 481 814 q 482 753 482 756 l 518 754 l 518 736 l 458 736 l 458 754 l 439 754 l 439 814 l 404 814 l 404 833 l 439 833 l 439 853 m 892 824 l 835 824 l 835 842 l 892 842 l 892 824 m 1096 756 l 1078 756 l 1078 771 l 1096 771 l 1096 756 m 835 811 l 814 811 l 814 736 l 776 736 l 776 842 l 814 842 l 814 829 q 835 824 822 829 l 835 811 m 1094 807 q 1078 808 1089 806 l 1078 819 l 1096 819 l 1096 839 l 1172 839 l 1172 819 l 1115 819 l 1115 808 l 1149 808 l 1149 789 l 1172 789 l 1172 771 l 1193 771 l 1193 756 l 1172 756 l 1172 736 l 1096 736 l 1096 756 l 1149 756 q 1151 764 1153 758 q 1149 771 1149 768 l 1115 771 l 1115 789 l 1096 789 l 1094 807 m 1193 808 l 1172 808 l 1172 819 l 1193 819 l 1193 808 m 638 736 l 564 736 l 564 838 l 601 838 l 601 758 l 638 758 l 638 736 m 676 769 l 657 769 l 657 758 l 638 758 l 638 838 l 676 838 l 676 769 m 739 825 l 706 825 l 706 851 l 739 851 l 739 825 m 739 736 l 706 736 l 706 804 l 739 804 l 739 736 m 1014 758 l 1014 838 l 1054 838 l 1054 736 l 963 736 l 963 758 l 943 758 l 943 838 l 976 838 l 976 758 l 1014 758 m 913 736 l 879 736 l 879 765 l 913 765 l 913 736 m 1132 239 l 1025 219 l 949 392 l 842 364 l 900 197 l 786 176 l 818 58 l 600 31 l 586 136 l 785 172 l 758 267 l 353 174 l 351 92 l 501 119 l 508 19 l 349 -3 l 351 96 l 279 82 l 288 218 l 235 203 l 219 69 l 169 60 l 197 264 l 238 278 l 244 340 l 297 358 l 300 404 l 358 425 l 358 481 l 304 460 l 307 508 l 360 531 l 358 481 l 415 504 l 417 447 l 604 517 l 593 575 l 664 603 l 650 654 l 728 688 l 746 636 l 665 604 l 681 544 l 768 575 l 786 525 l 872 556 l 904 482 l 992 508 l 1132 239 m 724 429 l 704 497 l 606 464 l 618 397 l 724 429 m 428 338 l 425 403 l 350 376 l 349 314 l 428 338 z "},"3":{"ha":1522,"x_min":36,"x_max":1417,"o":"m 175 567 l 38 567 l 38 603 l 83 603 l 83 792 l 38 792 l 38 831 l 175 831 l 175 793 l 131 793 l 131 604 l 175 604 l 175 567 m 354 567 l 308 567 l 308 601 l 286 601 l 286 640 l 264 640 l 264 678 l 240 678 l 240 567 l 193 567 l 193 831 l 239 831 l 239 793 l 263 793 l 263 756 l 286 756 l 286 718 l 308 718 l 308 831 l 354 831 l 354 567 m 532 681 l 510 681 l 510 642 l 486 642 l 486 604 l 464 604 l 464 567 l 440 567 l 440 601 l 417 601 l 417 640 l 393 640 l 393 676 l 369 676 l 369 831 l 415 831 l 415 719 l 439 719 l 439 679 l 461 679 l 461 717 l 486 717 l 486 831 l 532 831 l 532 681 m 706 567 l 660 567 l 660 642 l 592 642 l 592 567 l 546 567 l 546 753 l 567 753 l 567 792 l 590 792 l 590 831 l 658 831 l 658 793 l 682 793 l 682 756 l 706 756 l 706 567 m 658 681 l 658 756 l 636 756 l 636 792 l 614 792 l 614 753 l 592 753 l 592 681 l 658 681 m 883 642 l 861 642 l 861 604 l 839 604 l 839 567 l 724 567 l 724 831 l 838 831 l 838 793 l 861 793 l 861 756 l 883 756 l 883 642 m 838 642 l 838 756 l 814 756 l 814 792 l 769 792 l 769 604 l 815 604 l 815 642 l 838 642 m 1061 568 l 897 568 l 897 835 l 1061 835 l 1061 797 l 944 797 l 944 721 l 1014 721 l 1014 682 l 944 682 l 944 607 l 1061 607 l 1061 568 m 1238 686 l 1193 686 l 1193 647 l 1215 647 l 1215 610 l 1238 610 l 1238 571 l 1169 571 l 1169 608 l 1147 608 l 1147 647 l 1125 647 l 1125 571 l 1078 571 l 1078 835 l 1215 835 l 1215 797 l 1238 797 l 1238 686 m 1192 722 l 1192 797 l 1125 797 l 1125 686 l 1169 686 l 1169 722 l 1192 722 m 1417 604 l 1394 604 l 1394 567 l 1279 567 l 1279 601 l 1256 601 l 1256 642 l 1301 642 l 1301 604 l 1371 604 l 1371 676 l 1279 676 l 1279 715 l 1256 715 l 1256 792 l 1278 792 l 1278 831 l 1369 831 l 1369 793 l 1393 793 l 1393 754 l 1347 754 l 1347 792 l 1303 792 l 1303 719 l 1393 719 l 1393 681 l 1417 681 l 1417 604 m 290 56 l 254 56 l 254 13 l 75 13 l 75 53 l 38 53 l 38 97 l 108 97 l 108 56 l 218 56 l 218 139 l 75 139 l 75 182 l 38 182 l 38 268 l 72 268 l 72 310 l 218 310 l 218 269 l 253 269 l 253 226 l 182 226 l 182 268 l 110 268 l 110 185 l 253 185 l 253 142 l 290 142 l 290 56 m 558 140 l 524 140 l 524 97 l 379 97 l 379 13 l 306 13 l 306 310 l 521 310 l 521 269 l 558 269 l 558 140 m 486 140 l 486 268 l 378 268 l 378 140 l 486 140 m 836 13 l 764 13 l 764 97 l 657 97 l 657 13 l 583 13 l 583 225 l 618 225 l 618 268 l 654 268 l 654 310 l 764 310 l 764 269 l 800 269 l 800 226 l 836 226 l 836 13 m 764 140 l 764 226 l 726 226 l 726 268 l 690 268 l 690 225 l 656 225 l 656 140 l 764 140 m 1108 226 l 1038 226 l 1038 268 l 967 268 l 967 226 l 929 226 l 929 99 l 964 99 l 964 56 l 1036 56 l 1036 97 l 1108 97 l 1108 56 l 1074 56 l 1074 13 l 929 13 l 929 53 l 893 53 l 893 96 l 857 96 l 857 225 l 892 225 l 892 268 l 926 268 l 926 310 l 1072 310 l 1072 269 l 1108 269 l 1108 226 m 1397 8 l 1142 8 l 1142 308 l 1397 308 l 1397 268 l 1214 268 l 1214 182 l 1324 182 l 1324 138 l 1214 138 l 1214 53 l 1397 53 l 1397 8 m 353 492 l 131 492 l 131 442 l 306 442 l 306 415 l 132 415 l 132 340 l 36 340 l 36 518 l 353 518 l 353 492 m 713 415 l 619 415 l 619 392 l 664 392 l 664 365 l 713 365 l 713 340 l 572 340 l 572 364 l 525 364 l 525 390 l 481 390 l 481 340 l 385 340 l 385 518 l 664 518 l 664 492 l 713 492 l 713 415 m 618 442 l 618 492 l 478 492 l 478 415 l 572 415 l 572 442 l 618 442 m 1060 365 l 1017 365 l 1017 340 l 781 340 l 781 364 l 733 364 l 733 492 l 778 492 l 778 518 l 1014 518 l 1014 492 l 1060 492 l 1060 365 m 968 365 l 968 492 l 826 492 l 826 365 l 968 365 m 1407 340 l 1314 340 l 1314 415 l 1269 415 l 1269 392 l 1222 392 l 1222 415 l 1176 415 l 1176 340 l 1081 340 l 1081 518 l 1174 518 l 1174 492 l 1219 492 l 1219 468 l 1265 468 l 1265 492 l 1313 492 l 1313 518 l 1407 518 l 1407 340 z "},"4":{"ha":1221,"x_min":13,"x_max":1193,"o":"m 124 804 l 83 804 l 83 736 l 46 736 l 46 804 l 13 804 l 13 825 l 46 825 l 46 838 l 69 838 l 69 856 l 124 856 l 124 838 l 83 838 l 83 825 l 124 825 l 124 804 m 386 736 l 342 736 l 342 819 l 308 819 l 308 736 l 271 736 l 271 836 l 367 836 l 367 819 q 386 819 374 821 l 386 736 m 160 836 l 231 836 l 231 819 q 251 819 238 821 l 251 753 l 231 753 l 231 736 l 160 736 l 160 753 l 138 753 l 138 819 l 161 819 l 160 836 m 439 853 l 476 853 l 476 833 l 518 833 l 518 814 l 481 814 q 482 753 482 756 l 518 754 l 518 736 l 458 736 l 458 754 l 439 754 l 439 814 l 404 814 l 404 833 l 439 833 l 439 853 m 892 824 l 835 824 l 835 842 l 892 842 l 892 824 m 1096 756 l 1078 756 l 1078 771 l 1096 771 l 1096 756 m 835 811 l 814 811 l 814 736 l 776 736 l 776 842 l 814 842 l 814 829 q 835 824 822 829 l 835 811 m 1094 807 q 1078 808 1089 806 l 1078 819 l 1096 819 l 1096 839 l 1172 839 l 1172 819 l 1115 819 l 1115 808 l 1149 808 l 1149 789 l 1172 789 l 1172 771 l 1193 771 l 1193 756 l 1172 756 l 1172 736 l 1096 736 l 1096 756 l 1149 756 q 1151 764 1153 758 q 1149 771 1149 768 l 1115 771 l 1115 789 l 1096 789 l 1094 807 m 1193 808 l 1172 808 l 1172 819 l 1193 819 l 1193 808 m 638 736 l 564 736 l 564 838 l 601 838 l 601 758 l 638 758 l 638 736 m 676 769 l 657 769 l 657 758 l 638 758 l 638 838 l 676 838 l 676 769 m 739 825 l 706 825 l 706 851 l 739 851 l 739 825 m 739 736 l 706 736 l 706 804 l 739 804 l 739 736 m 1014 758 l 1014 838 l 1054 838 l 1054 736 l 963 736 l 963 758 l 943 758 l 943 838 l 976 838 l 976 758 l 1014 758 m 913 736 l 879 736 l 879 765 l 913 765 l 913 736 m 1132 239 l 1025 219 l 949 392 l 842 364 l 900 197 l 786 176 l 818 58 l 600 31 l 586 136 l 785 172 l 758 267 l 353 174 l 351 92 l 501 119 l 508 19 l 349 -3 l 351 96 l 279 82 l 288 218 l 235 203 l 219 69 l 169 60 l 197 264 l 238 278 l 244 340 l 297 358 l 300 404 l 358 425 l 358 481 l 304 460 l 307 508 l 360 531 l 358 481 l 415 504 l 417 447 l 604 517 l 593 575 l 664 603 l 650 654 l 728 688 l 746 636 l 665 604 l 681 544 l 768 575 l 786 525 l 872 556 l 904 482 l 992 508 l 1132 239 m 724 429 l 704 497 l 606 464 l 618 397 l 724 429 m 428 338 l 425 403 l 350 376 l 349 314 l 428 338 z "},"5":{"ha":1522,"x_min":36,"x_max":1417,"o":"m 175 567 l 38 567 l 38 603 l 83 603 l 83 792 l 38 792 l 38 831 l 175 831 l 175 793 l 131 793 l 131 604 l 175 604 l 175 567 m 354 567 l 308 567 l 308 601 l 286 601 l 286 640 l 264 640 l 264 678 l 240 678 l 240 567 l 193 567 l 193 831 l 239 831 l 239 793 l 263 793 l 263 756 l 286 756 l 286 718 l 308 718 l 308 831 l 354 831 l 354 567 m 532 681 l 510 681 l 510 642 l 486 642 l 486 604 l 464 604 l 464 567 l 440 567 l 440 601 l 417 601 l 417 640 l 393 640 l 393 676 l 369 676 l 369 831 l 415 831 l 415 719 l 439 719 l 439 679 l 461 679 l 461 717 l 486 717 l 486 831 l 532 831 l 532 681 m 706 567 l 660 567 l 660 642 l 592 642 l 592 567 l 546 567 l 546 753 l 567 753 l 567 792 l 590 792 l 590 831 l 658 831 l 658 793 l 682 793 l 682 756 l 706 756 l 706 567 m 658 681 l 658 756 l 636 756 l 636 792 l 614 792 l 614 753 l 592 753 l 592 681 l 658 681 m 883 642 l 861 642 l 861 604 l 839 604 l 839 567 l 724 567 l 724 831 l 838 831 l 838 793 l 861 793 l 861 756 l 883 756 l 883 642 m 838 642 l 838 756 l 814 756 l 814 792 l 769 792 l 769 604 l 815 604 l 815 642 l 838 642 m 1061 568 l 897 568 l 897 835 l 1061 835 l 1061 797 l 944 797 l 944 721 l 1014 721 l 1014 682 l 944 682 l 944 607 l 1061 607 l 1061 568 m 1238 686 l 1193 686 l 1193 647 l 1215 647 l 1215 610 l 1238 610 l 1238 571 l 1169 571 l 1169 608 l 1147 608 l 1147 647 l 1125 647 l 1125 571 l 1078 571 l 1078 835 l 1215 835 l 1215 797 l 1238 797 l 1238 686 m 1192 722 l 1192 797 l 1125 797 l 1125 686 l 1169 686 l 1169 722 l 1192 722 m 1417 604 l 1394 604 l 1394 567 l 1279 567 l 1279 601 l 1256 601 l 1256 642 l 1301 642 l 1301 604 l 1371 604 l 1371 676 l 1279 676 l 1279 715 l 1256 715 l 1256 792 l 1278 792 l 1278 831 l 1369 831 l 1369 793 l 1393 793 l 1393 754 l 1347 754 l 1347 792 l 1303 792 l 1303 719 l 1393 719 l 1393 681 l 1417 681 l 1417 604 m 290 56 l 254 56 l 254 13 l 75 13 l 75 53 l 38 53 l 38 97 l 108 97 l 108 56 l 218 56 l 218 139 l 75 139 l 75 182 l 38 182 l 38 268 l 72 268 l 72 310 l 218 310 l 218 269 l 253 269 l 253 226 l 182 226 l 182 268 l 110 268 l 110 185 l 253 185 l 253 142 l 290 142 l 290 56 m 558 140 l 524 140 l 524 97 l 379 97 l 379 13 l 306 13 l 306 310 l 521 310 l 521 269 l 558 269 l 558 140 m 486 140 l 486 268 l 378 268 l 378 140 l 486 140 m 836 13 l 764 13 l 764 97 l 657 97 l 657 13 l 583 13 l 583 225 l 618 225 l 618 268 l 654 268 l 654 310 l 764 310 l 764 269 l 800 269 l 800 226 l 836 226 l 836 13 m 764 140 l 764 226 l 726 226 l 726 268 l 690 268 l 690 225 l 656 225 l 656 140 l 764 140 m 1108 226 l 1038 226 l 1038 268 l 967 268 l 967 226 l 929 226 l 929 99 l 964 99 l 964 56 l 1036 56 l 1036 97 l 1108 97 l 1108 56 l 1074 56 l 1074 13 l 929 13 l 929 53 l 893 53 l 893 96 l 857 96 l 857 225 l 892 225 l 892 268 l 926 268 l 926 310 l 1072 310 l 1072 269 l 1108 269 l 1108 226 m 1397 8 l 1142 8 l 1142 308 l 1397 308 l 1397 268 l 1214 268 l 1214 182 l 1324 182 l 1324 138 l 1214 138 l 1214 53 l 1397 53 l 1397 8 m 353 492 l 131 492 l 131 442 l 306 442 l 306 415 l 132 415 l 132 340 l 36 340 l 36 518 l 353 518 l 353 492 m 713 415 l 619 415 l 619 392 l 664 392 l 664 365 l 713 365 l 713 340 l 572 340 l 572 364 l 525 364 l 525 390 l 481 390 l 481 340 l 385 340 l 385 518 l 664 518 l 664 492 l 713 492 l 713 415 m 618 442 l 618 492 l 478 492 l 478 415 l 572 415 l 572 442 l 618 442 m 1060 365 l 1017 365 l 1017 340 l 781 340 l 781 364 l 733 364 l 733 492 l 778 492 l 778 518 l 1014 518 l 1014 492 l 1060 492 l 1060 365 m 968 365 l 968 492 l 826 492 l 826 365 l 968 365 m 1407 340 l 1314 340 l 1314 415 l 1269 415 l 1269 392 l 1222 392 l 1222 415 l 1176 415 l 1176 340 l 1081 340 l 1081 518 l 1174 518 l 1174 492 l 1219 492 l 1219 468 l 1265 468 l 1265 492 l 1313 492 l 1313 518 l 1407 518 l 1407 340 z "},"6":{"ha":1221,"x_min":13,"x_max":1193,"o":"m 124 804 l 83 804 l 83 736 l 46 736 l 46 804 l 13 804 l 13 825 l 46 825 l 46 838 l 69 838 l 69 856 l 124 856 l 124 838 l 83 838 l 83 825 l 124 825 l 124 804 m 386 736 l 342 736 l 342 819 l 308 819 l 308 736 l 271 736 l 271 836 l 367 836 l 367 819 q 386 819 374 821 l 386 736 m 160 836 l 231 836 l 231 819 q 251 819 238 821 l 251 753 l 231 753 l 231 736 l 160 736 l 160 753 l 138 753 l 138 819 l 161 819 l 160 836 m 439 853 l 476 853 l 476 833 l 518 833 l 518 814 l 481 814 q 482 753 482 756 l 518 754 l 518 736 l 458 736 l 458 754 l 439 754 l 439 814 l 404 814 l 404 833 l 439 833 l 439 853 m 892 824 l 835 824 l 835 842 l 892 842 l 892 824 m 1096 756 l 1078 756 l 1078 771 l 1096 771 l 1096 756 m 835 811 l 814 811 l 814 736 l 776 736 l 776 842 l 814 842 l 814 829 q 835 824 822 829 l 835 811 m 1094 807 q 1078 808 1089 806 l 1078 819 l 1096 819 l 1096 839 l 1172 839 l 1172 819 l 1115 819 l 1115 808 l 1149 808 l 1149 789 l 1172 789 l 1172 771 l 1193 771 l 1193 756 l 1172 756 l 1172 736 l 1096 736 l 1096 756 l 1149 756 q 1151 764 1153 758 q 1149 771 1149 768 l 1115 771 l 1115 789 l 1096 789 l 1094 807 m 1193 808 l 1172 808 l 1172 819 l 1193 819 l 1193 808 m 638 736 l 564 736 l 564 838 l 601 838 l 601 758 l 638 758 l 638 736 m 676 769 l 657 769 l 657 758 l 638 758 l 638 838 l 676 838 l 676 769 m 739 825 l 706 825 l 706 851 l 739 851 l 739 825 m 739 736 l 706 736 l 706 804 l 739 804 l 739 736 m 1014 758 l 1014 838 l 1054 838 l 1054 736 l 963 736 l 963 758 l 943 758 l 943 838 l 976 838 l 976 758 l 1014 758 m 913 736 l 879 736 l 879 765 l 913 765 l 913 736 m 1132 239 l 1025 219 l 949 392 l 842 364 l 900 197 l 786 176 l 818 58 l 600 31 l 586 136 l 785 172 l 758 267 l 353 174 l 351 92 l 501 119 l 508 19 l 349 -3 l 351 96 l 279 82 l 288 218 l 235 203 l 219 69 l 169 60 l 197 264 l 238 278 l 244 340 l 297 358 l 300 404 l 358 425 l 358 481 l 304 460 l 307 508 l 360 531 l 358 481 l 415 504 l 417 447 l 604 517 l 593 575 l 664 603 l 650 654 l 728 688 l 746 636 l 665 604 l 681 544 l 768 575 l 786 525 l 872 556 l 904 482 l 992 508 l 1132 239 m 724 429 l 704 497 l 606 464 l 618 397 l 724 429 m 428 338 l 425 403 l 350 376 l 349 314 l 428 338 z "},"7":{"ha":1522,"x_min":36,"x_max":1417,"o":"m 175 567 l 38 567 l 38 603 l 83 603 l 83 792 l 38 792 l 38 831 l 175 831 l 175 793 l 131 793 l 131 604 l 175 604 l 175 567 m 354 567 l 308 567 l 308 601 l 286 601 l 286 640 l 264 640 l 264 678 l 240 678 l 240 567 l 193 567 l 193 831 l 239 831 l 239 793 l 263 793 l 263 756 l 286 756 l 286 718 l 308 718 l 308 831 l 354 831 l 354 567 m 532 681 l 510 681 l 510 642 l 486 642 l 486 604 l 464 604 l 464 567 l 440 567 l 440 601 l 417 601 l 417 640 l 393 640 l 393 676 l 369 676 l 369 831 l 415 831 l 415 719 l 439 719 l 439 679 l 461 679 l 461 717 l 486 717 l 486 831 l 532 831 l 532 681 m 706 567 l 660 567 l 660 642 l 592 642 l 592 567 l 546 567 l 546 753 l 567 753 l 567 792 l 590 792 l 590 831 l 658 831 l 658 793 l 682 793 l 682 756 l 706 756 l 706 567 m 658 681 l 658 756 l 636 756 l 636 792 l 614 792 l 614 753 l 592 753 l 592 681 l 658 681 m 883 642 l 861 642 l 861 604 l 839 604 l 839 567 l 724 567 l 724 831 l 838 831 l 838 793 l 861 793 l 861 756 l 883 756 l 883 642 m 838 642 l 838 756 l 814 756 l 814 792 l 769 792 l 769 604 l 815 604 l 815 642 l 838 642 m 1061 568 l 897 568 l 897 835 l 1061 835 l 1061 797 l 944 797 l 944 721 l 1014 721 l 1014 682 l 944 682 l 944 607 l 1061 607 l 1061 568 m 1238 686 l 1193 686 l 1193 647 l 1215 647 l 1215 610 l 1238 610 l 1238 571 l 1169 571 l 1169 608 l 1147 608 l 1147 647 l 1125 647 l 1125 571 l 1078 571 l 1078 835 l 1215 835 l 1215 797 l 1238 797 l 1238 686 m 1192 722 l 1192 797 l 1125 797 l 1125 686 l 1169 686 l 1169 722 l 1192 722 m 1417 604 l 1394 604 l 1394 567 l 1279 567 l 1279 601 l 1256 601 l 1256 642 l 1301 642 l 1301 604 l 1371 604 l 1371 676 l 1279 676 l 1279 715 l 1256 715 l 1256 792 l 1278 792 l 1278 831 l 1369 831 l 1369 793 l 1393 793 l 1393 754 l 1347 754 l 1347 792 l 1303 792 l 1303 719 l 1393 719 l 1393 681 l 1417 681 l 1417 604 m 290 56 l 254 56 l 254 13 l 75 13 l 75 53 l 38 53 l 38 97 l 108 97 l 108 56 l 218 56 l 218 139 l 75 139 l 75 182 l 38 182 l 38 268 l 72 268 l 72 310 l 218 310 l 218 269 l 253 269 l 253 226 l 182 226 l 182 268 l 110 268 l 110 185 l 253 185 l 253 142 l 290 142 l 290 56 m 558 140 l 524 140 l 524 97 l 379 97 l 379 13 l 306 13 l 306 310 l 521 310 l 521 269 l 558 269 l 558 140 m 486 140 l 486 268 l 378 268 l 378 140 l 486 140 m 836 13 l 764 13 l 764 97 l 657 97 l 657 13 l 583 13 l 583 225 l 618 225 l 618 268 l 654 268 l 654 310 l 764 310 l 764 269 l 800 269 l 800 226 l 836 226 l 836 13 m 764 140 l 764 226 l 726 226 l 726 268 l 690 268 l 690 225 l 656 225 l 656 140 l 764 140 m 1108 226 l 1038 226 l 1038 268 l 967 268 l 967 226 l 929 226 l 929 99 l 964 99 l 964 56 l 1036 56 l 1036 97 l 1108 97 l 1108 56 l 1074 56 l 1074 13 l 929 13 l 929 53 l 893 53 l 893 96 l 857 96 l 857 225 l 892 225 l 892 268 l 926 268 l 926 310 l 1072 310 l 1072 269 l 1108 269 l 1108 226 m 1397 8 l 1142 8 l 1142 308 l 1397 308 l 1397 268 l 1214 268 l 1214 182 l 1324 182 l 1324 138 l 1214 138 l 1214 53 l 1397 53 l 1397 8 m 353 492 l 131 492 l 131 442 l 306 442 l 306 415 l 132 415 l 132 340 l 36 340 l 36 518 l 353 518 l 353 492 m 713 415 l 619 415 l 619 392 l 664 392 l 664 365 l 713 365 l 713 340 l 572 340 l 572 364 l 525 364 l 525 390 l 481 390 l 481 340 l 385 340 l 385 518 l 664 518 l 664 492 l 713 492 l 713 415 m 618 442 l 618 492 l 478 492 l 478 415 l 572 415 l 572 442 l 618 442 m 1060 365 l 1017 365 l 1017 340 l 781 340 l 781 364 l 733 364 l 733 492 l 778 492 l 778 518 l 1014 518 l 1014 492 l 1060 492 l 1060 365 m 968 365 l 968 492 l 826 492 l 826 365 l 968 365 m 1407 340 l 1314 340 l 1314 415 l 1269 415 l 1269 392 l 1222 392 l 1222 415 l 1176 415 l 1176 340 l 1081 340 l 1081 518 l 1174 518 l 1174 492 l 1219 492 l 1219 468 l 1265 468 l 1265 492 l 1313 492 l 1313 518 l 1407 518 l 1407 340 z "},"8":{"ha":1221,"x_min":13,"x_max":1193,"o":"m 124 804 l 83 804 l 83 736 l 46 736 l 46 804 l 13 804 l 13 825 l 46 825 l 46 838 l 69 838 l 69 856 l 124 856 l 124 838 l 83 838 l 83 825 l 124 825 l 124 804 m 386 736 l 342 736 l 342 819 l 308 819 l 308 736 l 271 736 l 271 836 l 367 836 l 367 819 q 386 819 374 821 l 386 736 m 160 836 l 231 836 l 231 819 q 251 819 238 821 l 251 753 l 231 753 l 231 736 l 160 736 l 160 753 l 138 753 l 138 819 l 161 819 l 160 836 m 439 853 l 476 853 l 476 833 l 518 833 l 518 814 l 481 814 q 482 753 482 756 l 518 754 l 518 736 l 458 736 l 458 754 l 439 754 l 439 814 l 404 814 l 404 833 l 439 833 l 439 853 m 892 824 l 835 824 l 835 842 l 892 842 l 892 824 m 1096 756 l 1078 756 l 1078 771 l 1096 771 l 1096 756 m 835 811 l 814 811 l 814 736 l 776 736 l 776 842 l 814 842 l 814 829 q 835 824 822 829 l 835 811 m 1094 807 q 1078 808 1089 806 l 1078 819 l 1096 819 l 1096 839 l 1172 839 l 1172 819 l 1115 819 l 1115 808 l 1149 808 l 1149 789 l 1172 789 l 1172 771 l 1193 771 l 1193 756 l 1172 756 l 1172 736 l 1096 736 l 1096 756 l 1149 756 q 1151 764 1153 758 q 1149 771 1149 768 l 1115 771 l 1115 789 l 1096 789 l 1094 807 m 1193 808 l 1172 808 l 1172 819 l 1193 819 l 1193 808 m 638 736 l 564 736 l 564 838 l 601 838 l 601 758 l 638 758 l 638 736 m 676 769 l 657 769 l 657 758 l 638 758 l 638 838 l 676 838 l 676 769 m 739 825 l 706 825 l 706 851 l 739 851 l 739 825 m 739 736 l 706 736 l 706 804 l 739 804 l 739 736 m 1014 758 l 1014 838 l 1054 838 l 1054 736 l 963 736 l 963 758 l 943 758 l 943 838 l 976 838 l 976 758 l 1014 758 m 913 736 l 879 736 l 879 765 l 913 765 l 913 736 m 1132 239 l 1025 219 l 949 392 l 842 364 l 900 197 l 786 176 l 818 58 l 600 31 l 586 136 l 785 172 l 758 267 l 353 174 l 351 92 l 501 119 l 508 19 l 349 -3 l 351 96 l 279 82 l 288 218 l 235 203 l 219 69 l 169 60 l 197 264 l 238 278 l 244 340 l 297 358 l 300 404 l 358 425 l 358 481 l 304 460 l 307 508 l 360 531 l 358 481 l 415 504 l 417 447 l 604 517 l 593 575 l 664 603 l 650 654 l 728 688 l 746 636 l 665 604 l 681 544 l 768 575 l 786 525 l 872 556 l 904 482 l 992 508 l 1132 239 m 724 429 l 704 497 l 606 464 l 618 397 l 724 429 m 428 338 l 425 403 l 350 376 l 349 314 l 428 338 z "},"9":{"ha":1522,"x_min":36,"x_max":1417,"o":"m 175 567 l 38 567 l 38 603 l 83 603 l 83 792 l 38 792 l 38 831 l 175 831 l 175 793 l 131 793 l 131 604 l 175 604 l 175 567 m 354 567 l 308 567 l 308 601 l 286 601 l 286 640 l 264 640 l 264 678 l 240 678 l 240 567 l 193 567 l 193 831 l 239 831 l 239 793 l 263 793 l 263 756 l 286 756 l 286 718 l 308 718 l 308 831 l 354 831 l 354 567 m 532 681 l 510 681 l 510 642 l 486 642 l 486 604 l 464 604 l 464 567 l 440 567 l 440 601 l 417 601 l 417 640 l 393 640 l 393 676 l 369 676 l 369 831 l 415 831 l 415 719 l 439 719 l 439 679 l 461 679 l 461 717 l 486 717 l 486 831 l 532 831 l 532 681 m 706 567 l 660 567 l 660 642 l 592 642 l 592 567 l 546 567 l 546 753 l 567 753 l 567 792 l 590 792 l 590 831 l 658 831 l 658 793 l 682 793 l 682 756 l 706 756 l 706 567 m 658 681 l 658 756 l 636 756 l 636 792 l 614 792 l 614 753 l 592 753 l 592 681 l 658 681 m 883 642 l 861 642 l 861 604 l 839 604 l 839 567 l 724 567 l 724 831 l 838 831 l 838 793 l 861 793 l 861 756 l 883 756 l 883 642 m 838 642 l 838 756 l 814 756 l 814 792 l 769 792 l 769 604 l 815 604 l 815 642 l 838 642 m 1061 568 l 897 568 l 897 835 l 1061 835 l 1061 797 l 944 797 l 944 721 l 1014 721 l 1014 682 l 944 682 l 944 607 l 1061 607 l 1061 568 m 1238 686 l 1193 686 l 1193 647 l 1215 647 l 1215 610 l 1238 610 l 1238 571 l 1169 571 l 1169 608 l 1147 608 l 1147 647 l 1125 647 l 1125 571 l 1078 571 l 1078 835 l 1215 835 l 1215 797 l 1238 797 l 1238 686 m 1192 722 l 1192 797 l 1125 797 l 1125 686 l 1169 686 l 1169 722 l 1192 722 m 1417 604 l 1394 604 l 1394 567 l 1279 567 l 1279 601 l 1256 601 l 1256 642 l 1301 642 l 1301 604 l 1371 604 l 1371 676 l 1279 676 l 1279 715 l 1256 715 l 1256 792 l 1278 792 l 1278 831 l 1369 831 l 1369 793 l 1393 793 l 1393 754 l 1347 754 l 1347 792 l 1303 792 l 1303 719 l 1393 719 l 1393 681 l 1417 681 l 1417 604 m 290 56 l 254 56 l 254 13 l 75 13 l 75 53 l 38 53 l 38 97 l 108 97 l 108 56 l 218 56 l 218 139 l 75 139 l 75 182 l 38 182 l 38 268 l 72 268 l 72 310 l 218 310 l 218 269 l 253 269 l 253 226 l 182 226 l 182 268 l 110 268 l 110 185 l 253 185 l 253 142 l 290 142 l 290 56 m 558 140 l 524 140 l 524 97 l 379 97 l 379 13 l 306 13 l 306 310 l 521 310 l 521 269 l 558 269 l 558 140 m 486 140 l 486 268 l 378 268 l 378 140 l 486 140 m 836 13 l 764 13 l 764 97 l 657 97 l 657 13 l 583 13 l 583 225 l 618 225 l 618 268 l 654 268 l 654 310 l 764 310 l 764 269 l 800 269 l 800 226 l 836 226 l 836 13 m 764 140 l 764 226 l 726 226 l 726 268 l 690 268 l 690 225 l 656 225 l 656 140 l 764 140 m 1108 226 l 1038 226 l 1038 268 l 967 268 l 967 226 l 929 226 l 929 99 l 964 99 l 964 56 l 1036 56 l 1036 97 l 1108 97 l 1108 56 l 1074 56 l 1074 13 l 929 13 l 929 53 l 893 53 l 893 96 l 857 96 l 857 225 l 892 225 l 892 268 l 926 268 l 926 310 l 1072 310 l 1072 269 l 1108 269 l 1108 226 m 1397 8 l 1142 8 l 1142 308 l 1397 308 l 1397 268 l 1214 268 l 1214 182 l 1324 182 l 1324 138 l 1214 138 l 1214 53 l 1397 53 l 1397 8 m 353 492 l 131 492 l 131 442 l 306 442 l 306 415 l 132 415 l 132 340 l 36 340 l 36 518 l 353 518 l 353 492 m 713 415 l 619 415 l 619 392 l 664 392 l 664 365 l 713 365 l 713 340 l 572 340 l 572 364 l 525 364 l 525 390 l 481 390 l 481 340 l 385 340 l 385 518 l 664 518 l 664 492 l 713 492 l 713 415 m 618 442 l 618 492 l 478 492 l 478 415 l 572 415 l 572 442 l 618 442 m 1060 365 l 1017 365 l 1017 340 l 781 340 l 781 364 l 733 364 l 733 492 l 778 492 l 778 518 l 1014 518 l 1014 492 l 1060 492 l 1060 365 m 968 365 l 968 492 l 826 492 l 826 365 l 968 365 m 1407 340 l 1314 340 l 1314 415 l 1269 415 l 1269 392 l 1222 392 l 1222 415 l 1176 415 l 1176 340 l 1081 340 l 1081 518 l 1174 518 l 1174 492 l 1219 492 l 1219 468 l 1265 468 l 1265 492 l 1313 492 l 1313 518 l 1407 518 l 1407 340 z "}," ":{"ha":74,"x_min":0,"x_max":0,"o":""},"‐":{"ha":74,"x_min":0,"x_max":0,"o":""},"@":{"ha":1221,"x_min":13,"x_max":1193,"o":"m 124 804 l 83 804 l 83 736 l 46 736 l 46 804 l 13 804 l 13 825 l 46 825 l 46 838 l 69 838 l 69 856 l 124 856 l 124 838 l 83 838 l 83 825 l 124 825 l 124 804 m 386 736 l 342 736 l 342 819 l 308 819 l 308 736 l 271 736 l 271 836 l 367 836 l 367 819 q 386 819 374 821 l 386 736 m 160 836 l 231 836 l 231 819 q 251 819 238 821 l 251 753 l 231 753 l 231 736 l 160 736 l 160 753 l 138 753 l 138 819 l 161 819 l 160 836 m 439 853 l 476 853 l 476 833 l 518 833 l 518 814 l 481 814 q 482 753 482 756 l 518 754 l 518 736 l 458 736 l 458 754 l 439 754 l 439 814 l 404 814 l 404 833 l 439 833 l 439 853 m 892 824 l 835 824 l 835 842 l 892 842 l 892 824 m 1096 756 l 1078 756 l 1078 771 l 1096 771 l 1096 756 m 835 811 l 814 811 l 814 736 l 776 736 l 776 842 l 814 842 l 814 829 q 835 824 822 829 l 835 811 m 1094 807 q 1078 808 1089 806 l 1078 819 l 1096 819 l 1096 839 l 1172 839 l 1172 819 l 1115 819 l 1115 808 l 1149 808 l 1149 789 l 1172 789 l 1172 771 l 1193 771 l 1193 756 l 1172 756 l 1172 736 l 1096 736 l 1096 756 l 1149 756 q 1151 764 1153 758 q 1149 771 1149 768 l 1115 771 l 1115 789 l 1096 789 l 1094 807 m 1193 808 l 1172 808 l 1172 819 l 1193 819 l 1193 808 m 638 736 l 564 736 l 564 838 l 601 838 l 601 758 l 638 758 l 638 736 m 676 769 l 657 769 l 657 758 l 638 758 l 638 838 l 676 838 l 676 769 m 739 825 l 706 825 l 706 851 l 739 851 l 739 825 m 739 736 l 706 736 l 706 804 l 739 804 l 739 736 m 1014 758 l 1014 838 l 1054 838 l 1054 736 l 963 736 l 963 758 l 943 758 l 943 838 l 976 838 l 976 758 l 1014 758 m 913 736 l 879 736 l 879 765 l 913 765 l 913 736 m 1132 239 l 1025 219 l 949 392 l 842 364 l 900 197 l 786 176 l 818 58 l 600 31 l 586 136 l 785 172 l 758 267 l 353 174 l 351 92 l 501 119 l 508 19 l 349 -3 l 351 96 l 279 82 l 288 218 l 235 203 l 219 69 l 169 60 l 197 264 l 238 278 l 244 340 l 297 358 l 300 404 l 358 425 l 358 481 l 304 460 l 307 508 l 360 531 l 358 481 l 415 504 l 417 447 l 604 517 l 593 575 l 664 603 l 650 654 l 728 688 l 746 636 l 665 604 l 681 544 l 768 575 l 786 525 l 872 556 l 904 482 l 992 508 l 1132 239 m 724 429 l 704 497 l 606 464 l 618 397 l 724 429 m 428 338 l 425 403 l 350 376 l 349 314 l 428 338 z "},"A":{"ha":1522,"x_min":14,"x_max":1457,"o":"m 158 165 l 14 165 l 14 207 l 63 207 l 63 414 l 14 414 l 14 456 l 158 456 l 158 415 l 111 415 l 111 208 l 158 208 l 158 165 m 346 165 l 297 165 l 297 204 l 274 204 l 274 247 l 250 247 l 250 289 l 225 289 l 225 165 l 176 165 l 176 456 l 225 456 l 225 415 l 249 415 l 249 375 l 274 375 l 274 332 l 297 332 l 297 456 l 346 456 l 346 165 m 531 292 l 508 292 l 508 249 l 485 249 l 485 208 l 460 208 l 460 165 l 436 165 l 436 204 l 411 204 l 411 247 l 386 247 l 386 288 l 363 288 l 363 456 l 410 456 l 410 333 l 435 333 l 435 290 l 458 290 l 458 331 l 482 331 l 482 456 l 531 456 l 531 292 m 714 165 l 665 165 l 665 247 l 594 247 l 594 165 l 546 165 l 546 372 l 568 372 l 568 414 l 592 414 l 592 456 l 664 456 l 664 415 l 689 415 l 689 375 l 714 375 l 714 165 m 664 292 l 664 375 l 642 375 l 642 414 l 617 414 l 617 372 l 593 372 l 593 292 l 664 292 m 899 249 l 875 249 l 875 208 l 853 208 l 853 165 l 731 165 l 731 456 l 851 456 l 851 415 l 875 415 l 875 375 l 899 375 l 899 249 m 851 249 l 851 375 l 826 375 l 826 414 l 779 414 l 779 208 l 828 208 l 828 249 l 851 249 m 1085 168 l 914 168 l 914 461 l 1085 461 l 1085 419 l 964 419 l 964 336 l 1036 336 l 1036 293 l 964 293 l 964 210 l 1085 210 l 1085 168 m 1269 297 l 1224 297 l 1224 256 l 1247 256 l 1247 214 l 1269 214 l 1269 171 l 1199 171 l 1199 211 l 1175 211 l 1175 254 l 1151 254 l 1151 171 l 1103 171 l 1103 461 l 1247 461 l 1247 421 l 1269 421 l 1269 297 m 1222 338 l 1222 419 l 1151 419 l 1151 297 l 1199 297 l 1199 338 l 1222 338 m 1457 208 l 1433 208 l 1433 165 l 1313 165 l 1313 204 l 1288 204 l 1288 247 l 1336 247 l 1336 208 l 1408 208 l 1408 288 l 1313 288 l 1313 331 l 1288 331 l 1288 414 l 1311 414 l 1311 456 l 1408 456 l 1408 415 l 1432 415 l 1432 374 l 1385 374 l 1385 414 l 1336 414 l 1336 333 l 1432 333 l 1432 292 l 1457 292 l 1457 208 m 278 558 l 242 558 l 242 511 l 53 511 l 53 556 l 14 556 l 14 604 l 89 604 l 89 558 l 203 558 l 203 650 l 53 650 l 53 697 l 14 697 l 14 792 l 50 792 l 50 839 l 203 839 l 203 794 l 240 794 l 240 747 l 165 747 l 165 792 l 90 792 l 90 701 l 240 701 l 240 653 l 278 653 l 278 558 m 558 653 l 522 653 l 522 606 l 371 606 l 371 511 l 294 511 l 294 839 l 519 839 l 519 794 l 558 794 l 558 653 m 482 653 l 482 792 l 369 792 l 369 653 l 482 653 m 849 511 l 775 511 l 775 604 l 663 604 l 663 511 l 586 511 l 586 746 l 621 746 l 621 792 l 658 792 l 658 839 l 774 839 l 774 794 l 811 794 l 811 747 l 849 747 l 849 511 m 774 653 l 774 747 l 736 747 l 736 792 l 697 792 l 697 744 l 661 744 l 661 653 l 774 653 m 1135 747 l 1060 747 l 1060 792 l 986 792 l 986 747 l 947 747 l 947 607 l 983 607 l 983 558 l 1058 558 l 1058 604 l 1135 604 l 1135 558 l 1097 558 l 1097 511 l 947 511 l 947 556 l 908 556 l 908 603 l 871 603 l 871 746 l 907 746 l 907 792 l 944 792 l 944 839 l 1097 839 l 1097 794 l 1135 794 l 1135 747 m 1436 508 l 1169 508 l 1169 838 l 1436 838 l 1436 792 l 1246 792 l 1246 697 l 1358 697 l 1358 649 l 1246 649 l 1246 556 l 1436 556 l 1436 508 z "},"B":{"ha":1667,"x_min":0,"x_max":1528,"o":"m 556 556 l 556 694 l 417 694 l 417 556 l 556 556 m 1111 556 l 1111 694 l 972 694 l 972 556 l 1111 556 m 833 139 l 1111 139 l 1111 278 l 417 278 l 417 139 l 694 139 l 694 0 l 417 0 l 417 139 l 278 139 l 278 417 l 139 417 l 139 139 l 0 139 l 0 556 l 139 556 l 139 694 l 278 694 l 278 833 l 417 833 l 417 972 l 278 972 l 278 1111 l 417 1111 l 417 972 l 556 972 l 556 833 l 972 833 l 972 972 l 1111 972 l 1111 1111 l 1250 1111 l 1250 972 l 1111 972 l 1111 833 l 1250 833 l 1250 694 l 1389 694 l 1389 556 l 1528 556 l 1528 139 l 1389 139 l 1389 417 l 1250 417 l 1250 139 l 1111 139 l 1111 0 l 833 0 l 833 139 z "},"C":{"ha":1667,"x_min":0,"x_max":1528,"o":"m 556 556 l 556 694 l 417 694 l 417 556 l 556 556 m 1111 556 l 1111 694 l 972 694 l 972 556 l 1111 556 m 1389 972 l 1528 972 l 1528 417 l 1389 417 l 1389 278 l 1250 278 l 1250 139 l 1389 139 l 1389 0 l 1250 0 l 1250 139 l 1111 139 l 1111 278 l 417 278 l 417 139 l 278 139 l 278 0 l 139 0 l 139 139 l 278 139 l 278 278 l 139 278 l 139 417 l 0 417 l 0 972 l 139 972 l 139 694 l 278 694 l 278 833 l 417 833 l 417 972 l 278 972 l 278 1111 l 417 1111 l 417 972 l 556 972 l 556 833 l 972 833 l 972 972 l 1111 972 l 1111 1111 l 1250 1111 l 1250 972 l 1111 972 l 1111 833 l 1250 833 l 1250 694 l 1389 694 l 1389 972 z "},"D":{"ha":1250,"x_min":0,"x_max":1111,"o":"m 417 139 l 417 278 l 278 278 l 278 139 l 417 139 m 417 556 l 417 694 l 278 694 l 278 556 l 417 556 m 694 278 l 694 417 l 417 417 l 417 278 l 694 278 m 833 139 l 833 278 l 694 278 l 694 139 l 833 139 m 833 556 l 833 694 l 694 694 l 694 556 l 833 556 m 972 694 l 1111 694 l 1111 417 l 833 417 l 833 278 l 972 278 l 972 139 l 1111 139 l 1111 0 l 972 0 l 972 139 l 833 139 l 833 0 l 694 0 l 694 139 l 417 139 l 417 0 l 278 0 l 278 139 l 139 139 l 139 0 l 0 0 l 0 139 l 139 139 l 139 278 l 278 278 l 278 417 l 0 417 l 0 694 l 139 694 l 139 833 l 278 833 l 278 972 l 417 972 l 417 1111 l 694 1111 l 694 972 l 833 972 l 833 833 l 972 833 l 972 694 z "},"E":{"ha":1250,"x_min":0,"x_max":1111,"o":"m 417 556 l 417 694 l 278 694 l 278 556 l 417 556 m 833 556 l 833 694 l 694 694 l 694 556 l 833 556 m 972 694 l 1111 694 l 1111 417 l 833 417 l 833 278 l 972 278 l 972 139 l 833 139 l 833 0 l 694 0 l 694 139 l 833 139 l 833 278 l 694 278 l 694 417 l 417 417 l 417 278 l 278 278 l 278 139 l 417 139 l 417 0 l 278 0 l 278 139 l 139 139 l 139 278 l 278 278 l 278 417 l 0 417 l 0 694 l 139 694 l 139 833 l 278 833 l 278 972 l 417 972 l 417 1111 l 694 1111 l 694 972 l 833 972 l 833 833 l 972 833 l 972 694 z "},"F":{"ha":1806,"x_min":0,"x_max":1667,"o":"m 694 556 l 694 694 l 417 694 l 417 556 l 694 556 m 972 278 l 972 417 l 694 417 l 694 278 l 972 278 m 1250 556 l 1250 694 l 972 694 l 972 556 l 1250 556 m 1528 833 l 1667 833 l 1667 417 l 1250 417 l 1250 278 l 1389 278 l 1389 139 l 1250 139 l 1250 0 l 1111 0 l 1111 139 l 1250 139 l 1250 278 l 972 278 l 972 139 l 694 139 l 694 278 l 417 278 l 417 139 l 556 139 l 556 0 l 417 0 l 417 139 l 278 139 l 278 278 l 417 278 l 417 417 l 0 417 l 0 833 l 139 833 l 139 972 l 556 972 l 556 1111 l 1111 1111 l 1111 972 l 1528 972 l 1528 833 z "},"G":{"ha":1806,"x_min":0,"x_max":1667,"o":"m 694 556 l 694 694 l 417 694 l 417 556 l 694 556 m 972 278 l 972 417 l 694 417 l 694 278 l 972 278 m 1250 556 l 1250 694 l 972 694 l 972 556 l 1250 556 m 1528 833 l 1667 833 l 1667 417 l 1250 417 l 1250 278 l 1389 278 l 1389 139 l 1667 139 l 1667 0 l 1389 0 l 1389 139 l 1111 139 l 1111 278 l 972 278 l 972 139 l 694 139 l 694 278 l 556 278 l 556 139 l 278 139 l 278 0 l 0 0 l 0 139 l 278 139 l 278 278 l 417 278 l 417 417 l 0 417 l 0 833 l 139 833 l 139 972 l 556 972 l 556 1111 l 1111 1111 l 1111 972 l 1528 972 l 1528 833 z "},"`":{"ha":74,"x_min":0,"x_max":0,"o":""},"a":{"ha":1522,"x_min":36,"x_max":1417,"o":"m 175 567 l 38 567 l 38 603 l 83 603 l 83 792 l 38 792 l 38 831 l 175 831 l 175 793 l 131 793 l 131 604 l 175 604 l 175 567 m 354 567 l 308 567 l 308 601 l 286 601 l 286 640 l 264 640 l 264 678 l 240 678 l 240 567 l 193 567 l 193 831 l 239 831 l 239 793 l 263 793 l 263 756 l 286 756 l 286 718 l 308 718 l 308 831 l 354 831 l 354 567 m 532 681 l 510 681 l 510 642 l 486 642 l 486 604 l 464 604 l 464 567 l 440 567 l 440 601 l 417 601 l 417 640 l 393 640 l 393 676 l 369 676 l 369 831 l 415 831 l 415 719 l 439 719 l 439 679 l 461 679 l 461 717 l 486 717 l 486 831 l 532 831 l 532 681 m 706 567 l 660 567 l 660 642 l 592 642 l 592 567 l 546 567 l 546 753 l 567 753 l 567 792 l 590 792 l 590 831 l 658 831 l 658 793 l 682 793 l 682 756 l 706 756 l 706 567 m 658 681 l 658 756 l 636 756 l 636 792 l 614 792 l 614 753 l 592 753 l 592 681 l 658 681 m 883 642 l 861 642 l 861 604 l 839 604 l 839 567 l 724 567 l 724 831 l 838 831 l 838 793 l 861 793 l 861 756 l 883 756 l 883 642 m 838 642 l 838 756 l 814 756 l 814 792 l 769 792 l 769 604 l 815 604 l 815 642 l 838 642 m 1061 568 l 897 568 l 897 835 l 1061 835 l 1061 797 l 944 797 l 944 721 l 1014 721 l 1014 682 l 944 682 l 944 607 l 1061 607 l 1061 568 m 1238 686 l 1193 686 l 1193 647 l 1215 647 l 1215 610 l 1238 610 l 1238 571 l 1169 571 l 1169 608 l 1147 608 l 1147 647 l 1125 647 l 1125 571 l 1078 571 l 1078 835 l 1215 835 l 1215 797 l 1238 797 l 1238 686 m 1192 722 l 1192 797 l 1125 797 l 1125 686 l 1169 686 l 1169 722 l 1192 722 m 1417 604 l 1394 604 l 1394 567 l 1279 567 l 1279 601 l 1256 601 l 1256 642 l 1301 642 l 1301 604 l 1371 604 l 1371 676 l 1279 676 l 1279 715 l 1256 715 l 1256 792 l 1278 792 l 1278 831 l 1369 831 l 1369 793 l 1393 793 l 1393 754 l 1347 754 l 1347 792 l 1303 792 l 1303 719 l 1393 719 l 1393 681 l 1417 681 l 1417 604 m 290 56 l 254 56 l 254 13 l 75 13 l 75 53 l 38 53 l 38 97 l 108 97 l 108 56 l 218 56 l 218 139 l 75 139 l 75 182 l 38 182 l 38 268 l 72 268 l 72 310 l 218 310 l 218 269 l 253 269 l 253 226 l 182 226 l 182 268 l 110 268 l 110 185 l 253 185 l 253 142 l 290 142 l 290 56 m 558 140 l 524 140 l 524 97 l 379 97 l 379 13 l 306 13 l 306 310 l 521 310 l 521 269 l 558 269 l 558 140 m 486 140 l 486 268 l 378 268 l 378 140 l 486 140 m 836 13 l 764 13 l 764 97 l 657 97 l 657 13 l 583 13 l 583 225 l 618 225 l 618 268 l 654 268 l 654 310 l 764 310 l 764 269 l 800 269 l 800 226 l 836 226 l 836 13 m 764 140 l 764 226 l 726 226 l 726 268 l 690 268 l 690 225 l 656 225 l 656 140 l 764 140 m 1108 226 l 1038 226 l 1038 268 l 967 268 l 967 226 l 929 226 l 929 99 l 964 99 l 964 56 l 1036 56 l 1036 97 l 1108 97 l 1108 56 l 1074 56 l 1074 13 l 929 13 l 929 53 l 893 53 l 893 96 l 857 96 l 857 225 l 892 225 l 892 268 l 926 268 l 926 310 l 1072 310 l 1072 269 l 1108 269 l 1108 226 m 1397 8 l 1142 8 l 1142 308 l 1397 308 l 1397 268 l 1214 268 l 1214 182 l 1324 182 l 1324 138 l 1214 138 l 1214 53 l 1397 53 l 1397 8 m 353 492 l 131 492 l 131 442 l 306 442 l 306 415 l 132 415 l 132 340 l 36 340 l 36 518 l 353 518 l 353 492 m 713 415 l 619 415 l 619 392 l 664 392 l 664 365 l 713 365 l 713 340 l 572 340 l 572 364 l 525 364 l 525 390 l 481 390 l 481 340 l 385 340 l 385 518 l 664 518 l 664 492 l 713 492 l 713 415 m 618 442 l 618 492 l 478 492 l 478 415 l 572 415 l 572 442 l 618 442 m 1060 365 l 1017 365 l 1017 340 l 781 340 l 781 364 l 733 364 l 733 492 l 778 492 l 778 518 l 1014 518 l 1014 492 l 1060 492 l 1060 365 m 968 365 l 968 492 l 826 492 l 826 365 l 968 365 m 1407 340 l 1314 340 l 1314 415 l 1269 415 l 1269 392 l 1222 392 l 1222 415 l 1176 415 l 1176 340 l 1081 340 l 1081 518 l 1174 518 l 1174 492 l 1219 492 l 1219 468 l 1265 468 l 1265 492 l 1313 492 l 1313 518 l 1407 518 l 1407 340 z "},"d":{"ha":1250,"x_min":0,"x_max":1111,"o":"m 417 139 l 417 278 l 278 278 l 278 139 l 417 139 m 417 556 l 417 694 l 278 694 l 278 556 l 417 556 m 694 278 l 694 417 l 417 417 l 417 278 l 694 278 m 833 139 l 833 278 l 694 278 l 694 139 l 833 139 m 833 556 l 833 694 l 694 694 l 694 556 l 833 556 m 972 694 l 1111 694 l 1111 417 l 833 417 l 833 278 l 972 278 l 972 139 l 1111 139 l 1111 0 l 972 0 l 972 139 l 833 139 l 833 0 l 694 0 l 694 139 l 417 139 l 417 0 l 278 0 l 278 139 l 139 139 l 139 0 l 0 0 l 0 139 l 139 139 l 139 278 l 278 278 l 278 417 l 0 417 l 0 694 l 139 694 l 139 833 l 278 833 l 278 972 l 417 972 l 417 1111 l 694 1111 l 694 972 l 833 972 l 833 833 l 972 833 l 972 694 z "},"e":{"ha":1250,"x_min":0,"x_max":1111,"o":"m 417 556 l 417 694 l 278 694 l 278 556 l 417 556 m 833 556 l 833 694 l 694 694 l 694 556 l 833 556 m 972 694 l 1111 694 l 1111 417 l 833 417 l 833 278 l 972 278 l 972 139 l 833 139 l 833 0 l 694 0 l 694 139 l 833 139 l 833 278 l 694 278 l 694 417 l 417 417 l 417 278 l 278 278 l 278 139 l 417 139 l 417 0 l 278 0 l 278 139 l 139 139 l 139 278 l 278 278 l 278 417 l 0 417 l 0 694 l 139 694 l 139 833 l 278 833 l 278 972 l 417 972 l 417 1111 l 694 1111 l 694 972 l 833 972 l 833 833 l 972 833 l 972 694 z "},"f":{"ha":1806,"x_min":0,"x_max":1667,"o":"m 694 556 l 694 694 l 417 694 l 417 556 l 694 556 m 972 278 l 972 417 l 694 417 l 694 278 l 972 278 m 1250 556 l 1250 694 l 972 694 l 972 556 l 1250 556 m 1528 833 l 1667 833 l 1667 417 l 1250 417 l 1250 278 l 1389 278 l 1389 139 l 1250 139 l 1250 0 l 1111 0 l 1111 139 l 1250 139 l 1250 278 l 972 278 l 972 139 l 694 139 l 694 278 l 417 278 l 417 139 l 556 139 l 556 0 l 417 0 l 417 139 l 278 139 l 278 278 l 417 278 l 417 417 l 0 417 l 0 833 l 139 833 l 139 972 l 556 972 l 556 1111 l 1111 1111 l 1111 972 l 1528 972 l 1528 833 z "},"g":{"ha":1806,"x_min":0,"x_max":1667,"o":"m 694 556 l 694 694 l 417 694 l 417 556 l 694 556 m 972 278 l 972 417 l 694 417 l 694 278 l 972 278 m 1250 556 l 1250 694 l 972 694 l 972 556 l 1250 556 m 1528 833 l 1667 833 l 1667 417 l 1250 417 l 1250 278 l 1389 278 l 1389 139 l 1667 139 l 1667 0 l 1389 0 l 1389 139 l 1111 139 l 1111 278 l 972 278 l 972 139 l 694 139 l 694 278 l 556 278 l 556 139 l 278 139 l 278 0 l 0 0 l 0 139 l 278 139 l 278 278 l 417 278 l 417 417 l 0 417 l 0 833 l 139 833 l 139 972 l 556 972 l 556 1111 l 1111 1111 l 1111 972 l 1528 972 l 1528 833 z "},"¯":{"ha":1522,"x_min":36,"x_max":1417,"o":"m 175 567 l 38 567 l 38 603 l 83 603 l 83 792 l 38 792 l 38 831 l 175 831 l 175 793 l 131 793 l 131 604 l 175 604 l 175 567 m 354 567 l 308 567 l 308 601 l 286 601 l 286 640 l 264 640 l 264 678 l 240 678 l 240 567 l 193 567 l 193 831 l 239 831 l 239 793 l 263 793 l 263 756 l 286 756 l 286 718 l 308 718 l 308 831 l 354 831 l 354 567 m 532 681 l 510 681 l 510 642 l 486 642 l 486 604 l 464 604 l 464 567 l 440 567 l 440 601 l 417 601 l 417 640 l 393 640 l 393 676 l 369 676 l 369 831 l 415 831 l 415 719 l 439 719 l 439 679 l 461 679 l 461 717 l 486 717 l 486 831 l 532 831 l 532 681 m 706 567 l 660 567 l 660 642 l 592 642 l 592 567 l 546 567 l 546 753 l 567 753 l 567 792 l 590 792 l 590 831 l 658 831 l 658 793 l 682 793 l 682 756 l 706 756 l 706 567 m 658 681 l 658 756 l 636 756 l 636 792 l 614 792 l 614 753 l 592 753 l 592 681 l 658 681 m 883 642 l 861 642 l 861 604 l 839 604 l 839 567 l 724 567 l 724 831 l 838 831 l 838 793 l 861 793 l 861 756 l 883 756 l 883 642 m 838 642 l 838 756 l 814 756 l 814 792 l 769 792 l 769 604 l 815 604 l 815 642 l 838 642 m 1061 568 l 897 568 l 897 835 l 1061 835 l 1061 797 l 944 797 l 944 721 l 1014 721 l 1014 682 l 944 682 l 944 607 l 1061 607 l 1061 568 m 1238 686 l 1193 686 l 1193 647 l 1215 647 l 1215 610 l 1238 610 l 1238 571 l 1169 571 l 1169 608 l 1147 608 l 1147 647 l 1125 647 l 1125 571 l 1078 571 l 1078 835 l 1215 835 l 1215 797 l 1238 797 l 1238 686 m 1192 722 l 1192 797 l 1125 797 l 1125 686 l 1169 686 l 1169 722 l 1192 722 m 1417 604 l 1394 604 l 1394 567 l 1279 567 l 1279 601 l 1256 601 l 1256 642 l 1301 642 l 1301 604 l 1371 604 l 1371 676 l 1279 676 l 1279 715 l 1256 715 l 1256 792 l 1278 792 l 1278 831 l 1369 831 l 1369 793 l 1393 793 l 1393 754 l 1347 754 l 1347 792 l 1303 792 l 1303 719 l 1393 719 l 1393 681 l 1417 681 l 1417 604 m 290 56 l 254 56 l 254 13 l 75 13 l 75 53 l 38 53 l 38 97 l 108 97 l 108 56 l 218 56 l 218 139 l 75 139 l 75 182 l 38 182 l 38 268 l 72 268 l 72 310 l 218 310 l 218 269 l 253 269 l 253 226 l 182 226 l 182 268 l 110 268 l 110 185 l 253 185 l 253 142 l 290 142 l 290 56 m 558 140 l 524 140 l 524 97 l 379 97 l 379 13 l 306 13 l 306 310 l 521 310 l 521 269 l 558 269 l 558 140 m 486 140 l 486 268 l 378 268 l 378 140 l 486 140 m 836 13 l 764 13 l 764 97 l 657 97 l 657 13 l 583 13 l 583 225 l 618 225 l 618 268 l 654 268 l 654 310 l 764 310 l 764 269 l 800 269 l 800 226 l 836 226 l 836 13 m 764 140 l 764 226 l 726 226 l 726 268 l 690 268 l 690 225 l 656 225 l 656 140 l 764 140 m 1108 226 l 1038 226 l 1038 268 l 967 268 l 967 226 l 929 226 l 929 99 l 964 99 l 964 56 l 1036 56 l 1036 97 l 1108 97 l 1108 56 l 1074 56 l 1074 13 l 929 13 l 929 53 l 893 53 l 893 96 l 857 96 l 857 225 l 892 225 l 892 268 l 926 268 l 926 310 l 1072 310 l 1072 269 l 1108 269 l 1108 226 m 1397 8 l 1142 8 l 1142 308 l 1397 308 l 1397 268 l 1214 268 l 1214 182 l 1324 182 l 1324 138 l 1214 138 l 1214 53 l 1397 53 l 1397 8 m 353 492 l 131 492 l 131 442 l 306 442 l 306 415 l 132 415 l 132 340 l 36 340 l 36 518 l 353 518 l 353 492 m 713 415 l 619 415 l 619 392 l 664 392 l 664 365 l 713 365 l 713 340 l 572 340 l 572 364 l 525 364 l 525 390 l 481 390 l 481 340 l 385 340 l 385 518 l 664 518 l 664 492 l 713 492 l 713 415 m 618 442 l 618 492 l 478 492 l 478 415 l 572 415 l 572 442 l 618 442 m 1060 365 l 1017 365 l 1017 340 l 781 340 l 781 364 l 733 364 l 733 492 l 778 492 l 778 518 l 1014 518 l 1014 492 l 1060 492 l 1060 365 m 968 365 l 968 492 l 826 492 l 826 365 l 968 365 m 1407 340 l 1314 340 l 1314 415 l 1269 415 l 1269 392 l 1222 392 l 1222 415 l 1176 415 l 1176 340 l 1081 340 l 1081 518 l 1174 518 l 1174 492 l 1219 492 l 1219 468 l 1265 468 l 1265 492 l 1313 492 l 1313 518 l 1407 518 l 1407 340 z "},"b":{"ha":1667,"x_min":0,"x_max":1528,"o":"m 556 556 l 556 694 l 417 694 l 417 556 l 556 556 m 1111 556 l 1111 694 l 972 694 l 972 556 l 1111 556 m 833 139 l 1111 139 l 1111 278 l 417 278 l 417 139 l 694 139 l 694 0 l 417 0 l 417 139 l 278 139 l 278 417 l 139 417 l 139 139 l 0 139 l 0 556 l 139 556 l 139 694 l 278 694 l 278 833 l 417 833 l 417 972 l 278 972 l 278 1111 l 417 1111 l 417 972 l 556 972 l 556 833 l 972 833 l 972 972 l 1111 972 l 1111 1111 l 1250 1111 l 1250 972 l 1111 972 l 1111 833 l 1250 833 l 1250 694 l 1389 694 l 1389 556 l 1528 556 l 1528 139 l 1389 139 l 1389 417 l 1250 417 l 1250 139 l 1111 139 l 1111 0 l 833 0 l 833 139 z "},"c":{"ha":1667,"x_min":0,"x_max":1528,"o":"m 556 556 l 556 694 l 417 694 l 417 556 l 556 556 m 1111 556 l 1111 694 l 972 694 l 972 556 l 1111 556 m 1389 972 l 1528 972 l 1528 417 l 1389 417 l 1389 278 l 1250 278 l 1250 139 l 1389 139 l 1389 0 l 1250 0 l 1250 139 l 1111 139 l 1111 278 l 417 278 l 417 139 l 278 139 l 278 0 l 139 0 l 139 139 l 278 139 l 278 278 l 139 278 l 139 417 l 0 417 l 0 972 l 139 972 l 139 694 l 278 694 l 278 833 l 417 833 l 417 972 l 278 972 l 278 1111 l 417 1111 l 417 972 l 556 972 l 556 833 l 972 833 l 972 972 l 1111 972 l 1111 1111 l 1250 1111 l 1250 972 l 1111 972 l 1111 833 l 1250 833 l 1250 694 l 1389 694 l 1389 972 z "},"‘":{"ha":1211,"x_min":13,"x_max":1193,"o":"m 124 804 l 83 804 l 83 736 l 46 736 l 46 804 l 13 804 l 13 825 l 46 825 l 46 838 l 69 838 l 69 856 l 124 856 l 124 838 l 83 838 l 83 825 l 124 825 l 124 804 m 386 736 l 342 736 l 342 819 l 308 819 l 308 736 l 271 736 l 271 836 l 367 836 l 367 819 q 386 819 374 821 l 386 736 m 160 836 l 231 836 l 231 819 q 251 819 238 821 l 251 753 l 231 753 l 231 736 l 160 736 l 160 753 l 138 753 l 138 819 l 161 819 l 160 836 m 439 853 l 476 853 l 476 833 l 518 833 l 518 814 l 481 814 q 482 753 482 756 l 518 754 l 518 736 l 458 736 l 458 754 l 439 754 l 439 814 l 404 814 l 404 833 l 439 833 l 439 853 m 892 824 l 835 824 l 835 842 l 892 842 l 892 824 m 1096 756 l 1078 756 l 1078 771 l 1096 771 l 1096 756 m 835 811 l 814 811 l 814 736 l 776 736 l 776 842 l 814 842 l 814 829 q 835 824 822 829 l 835 811 m 1094 807 q 1078 808 1089 806 l 1078 819 l 1096 819 l 1096 839 l 1172 839 l 1172 819 l 1115 819 l 1115 808 l 1149 808 l 1149 789 l 1172 789 l 1172 771 l 1193 771 l 1193 756 l 1172 756 l 1172 736 l 1096 736 l 1096 756 l 1149 756 q 1151 764 1153 758 q 1149 771 1149 768 l 1115 771 l 1115 789 l 1096 789 l 1094 807 m 1193 808 l 1172 808 l 1172 819 l 1193 819 l 1193 808 m 638 736 l 564 736 l 564 838 l 601 838 l 601 758 l 638 758 l 638 736 m 676 769 l 657 769 l 657 758 l 638 758 l 638 838 l 676 838 l 676 769 m 739 825 l 706 825 l 706 851 l 739 851 l 739 825 m 739 736 l 706 736 l 706 804 l 739 804 l 739 736 m 1014 758 l 1014 838 l 1054 838 l 1054 736 l 963 736 l 963 758 l 943 758 l 943 838 l 976 838 l 976 758 l 1014 758 m 913 736 l 879 736 l 879 765 l 913 765 l 913 736 m 1132 239 l 1025 219 l 949 392 l 842 364 l 900 197 l 786 176 l 818 58 l 600 31 l 586 136 l 785 172 l 758 267 l 353 174 l 351 92 l 501 119 l 508 19 l 349 -3 l 351 96 l 279 82 l 288 218 l 235 203 l 219 69 l 169 60 l 197 264 l 238 278 l 244 340 l 297 358 l 300 404 l 358 425 l 358 481 l 304 460 l 307 508 l 360 531 l 358 481 l 415 504 l 417 447 l 604 517 l 593 575 l 664 603 l 650 654 l 728 688 l 746 636 l 665 604 l 681 544 l 768 575 l 786 525 l 872 556 l 904 482 l 992 508 l 1132 239 m 724 429 l 704 497 l 606 464 l 618 397 l 724 429 m 428 338 l 425 403 l 350 376 l 349 314 l 428 338 z "},"H":{"ha":1528,"x_min":0,"x_max":1389,"o":"m 556 556 l 556 694 l 417 694 l 417 556 l 556 556 m 972 556 l 972 694 l 833 694 l 833 556 l 972 556 m 1111 694 l 1250 694 l 1250 556 l 1389 556 l 1389 139 l 1250 139 l 1250 417 l 1111 417 l 1111 278 l 972 278 l 972 139 l 1111 139 l 1111 0 l 972 0 l 972 139 l 833 139 l 833 278 l 556 278 l 556 139 l 417 139 l 417 0 l 278 0 l 278 139 l 417 139 l 417 278 l 278 278 l 278 417 l 139 417 l 139 139 l 0 139 l 0 556 l 139 556 l 139 694 l 278 694 l 278 833 l 417 833 l 417 972 l 278 972 l 278 1111 l 417 1111 l 417 972 l 556 972 l 556 833 l 833 833 l 833 972 l 972 972 l 972 1111 l 1111 1111 l 1111 972 l 972 972 l 972 833 l 1111 833 l 1111 694 z "},"h":{"ha":1528,"x_min":0,"x_max":1389,"o":"m 556 556 l 556 694 l 417 694 l 417 556 l 556 556 m 972 556 l 972 694 l 833 694 l 833 556 l 972 556 m 1111 694 l 1250 694 l 1250 556 l 1389 556 l 1389 139 l 1250 139 l 1250 417 l 1111 417 l 1111 278 l 972 278 l 972 139 l 1111 139 l 1111 0 l 972 0 l 972 139 l 833 139 l 833 278 l 556 278 l 556 139 l 417 139 l 417 0 l 278 0 l 278 139 l 417 139 l 417 278 l 278 278 l 278 417 l 139 417 l 139 139 l 0 139 l 0 556 l 139 556 l 139 694 l 278 694 l 278 833 l 417 833 l 417 972 l 278 972 l 278 1111 l 417 1111 l 417 972 l 556 972 l 556 833 l 833 833 l 833 972 l 972 972 l 972 1111 l 1111 1111 l 1111 972 l 972 972 l 972 833 l 1111 833 l 1111 694 z "},"I":{"ha":1528,"x_min":0,"x_max":1389,"o":"m 139 139 l 0 139 l 0 556 l 139 556 l 139 694 l 278 694 l 278 833 l 417 833 l 417 972 l 556 972 l 556 833 l 833 833 l 833 972 l 972 972 l 972 833 l 1111 833 l 1111 694 l 1250 694 l 1250 556 l 1389 556 l 1389 139 l 1250 139 l 1250 417 l 1111 417 l 1111 278 l 972 278 l 972 139 l 1111 139 l 1111 0 l 833 0 l 833 278 l 556 278 l 556 0 l 278 0 l 278 139 l 417 139 l 417 278 l 278 278 l 278 417 l 139 417 l 139 139 m 556 556 l 417 556 l 417 417 l 556 417 l 556 556 m 972 556 l 833 556 l 833 417 l 972 417 l 972 556 z "},"i":{"ha":1528,"x_min":0,"x_max":1389,"o":"m 139 139 l 0 139 l 0 556 l 139 556 l 139 694 l 278 694 l 278 833 l 417 833 l 417 972 l 556 972 l 556 833 l 833 833 l 833 972 l 972 972 l 972 833 l 1111 833 l 1111 694 l 1250 694 l 1250 556 l 1389 556 l 1389 139 l 1250 139 l 1250 417 l 1111 417 l 1111 278 l 972 278 l 972 139 l 1111 139 l 1111 0 l 833 0 l 833 278 l 556 278 l 556 0 l 278 0 l 278 139 l 417 139 l 417 278 l 278 278 l 278 417 l 139 417 l 139 139 m 556 556 l 417 556 l 417 417 l 556 417 l 556 556 m 972 556 l 833 556 l 833 417 l 972 417 l 972 556 z "},"J":{"ha":1111,"x_min":0,"x_max":972,"o":"m 417 833 l 278 833 l 278 556 l 417 556 l 417 833 m 694 833 l 556 833 l 556 556 l 694 556 l 694 833 m 833 1111 l 972 1111 l 972 972 l 833 972 l 833 833 l 972 833 l 972 556 l 833 556 l 833 417 l 972 417 l 972 139 l 833 139 l 833 0 l 556 0 l 556 139 l 833 139 l 833 417 l 694 417 l 694 278 l 556 278 l 556 417 l 417 417 l 417 278 l 278 278 l 278 417 l 139 417 l 139 139 l 417 139 l 417 0 l 139 0 l 139 139 l 0 139 l 0 417 l 139 417 l 139 556 l 0 556 l 0 833 l 139 833 l 139 972 l 0 972 l 0 1111 l 139 1111 l 139 972 l 833 972 l 833 1111 z "},"j":{"ha":1111,"x_min":0,"x_max":972,"o":"m 417 833 l 278 833 l 278 556 l 417 556 l 417 833 m 694 833 l 556 833 l 556 556 l 694 556 l 694 833 m 833 1111 l 972 1111 l 972 972 l 833 972 l 833 833 l 972 833 l 972 556 l 833 556 l 833 417 l 972 417 l 972 139 l 833 139 l 833 0 l 556 0 l 556 139 l 833 139 l 833 417 l 694 417 l 694 278 l 556 278 l 556 417 l 417 417 l 417 278 l 278 278 l 278 417 l 139 417 l 139 139 l 417 139 l 417 0 l 139 0 l 139 139 l 0 139 l 0 417 l 139 417 l 139 556 l 0 556 l 0 833 l 139 833 l 139 972 l 0 972 l 0 1111 l 139 1111 l 139 972 l 833 972 l 833 1111 z "},"k":{"ha":1111,"x_min":0,"x_max":972,"o":"m 417 833 l 278 833 l 278 556 l 417 556 l 417 833 m 694 833 l 556 833 l 556 556 l 694 556 l 694 833 m 833 1111 l 972 1111 l 972 972 l 833 972 l 833 833 l 972 833 l 972 556 l 833 556 l 833 417 l 694 417 l 694 278 l 833 278 l 833 139 l 972 139 l 972 0 l 833 0 l 833 139 l 694 139 l 694 278 l 556 278 l 556 417 l 417 417 l 417 278 l 278 278 l 278 139 l 139 139 l 139 0 l 0 0 l 0 139 l 139 139 l 139 278 l 278 278 l 278 417 l 139 417 l 139 556 l 0 556 l 0 833 l 139 833 l 139 972 l 0 972 l 0 1111 l 139 1111 l 139 972 l 833 972 l 833 1111 z "},"K":{"ha":1111,"x_min":0,"x_max":972,"o":"m 417 833 l 278 833 l 278 556 l 417 556 l 417 833 m 694 833 l 556 833 l 556 556 l 694 556 l 694 833 m 833 1111 l 972 1111 l 972 972 l 833 972 l 833 833 l 972 833 l 972 556 l 833 556 l 833 417 l 694 417 l 694 278 l 833 278 l 833 139 l 972 139 l 972 0 l 833 0 l 833 139 l 694 139 l 694 278 l 556 278 l 556 417 l 417 417 l 417 278 l 278 278 l 278 139 l 139 139 l 139 0 l 0 0 l 0 139 l 139 139 l 139 278 l 278 278 l 278 417 l 139 417 l 139 556 l 0 556 l 0 833 l 139 833 l 139 972 l 0 972 l 0 1111 l 139 1111 l 139 972 l 833 972 l 833 1111 z "},"L":{"ha":1389,"x_min":0,"x_max":1250,"o":"m 556 694 l 556 833 l 278 833 l 278 694 l 556 694 m 972 694 l 972 833 l 694 833 l 694 694 l 972 694 m 1111 139 l 1250 139 l 1250 0 l 1111 0 l 1111 139 l 972 139 l 972 278 l 833 278 l 833 417 l 417 417 l 417 278 l 278 278 l 278 139 l 139 139 l 139 0 l 0 0 l 0 139 l 139 139 l 139 278 l 278 278 l 278 417 l 417 417 l 417 556 l 0 556 l 0 833 l 139 833 l 139 972 l 278 972 l 278 1111 l 972 1111 l 972 972 l 1111 972 l 1111 833 l 1250 833 l 1250 556 l 833 556 l 833 417 l 972 417 l 972 278 l 1111 278 l 1111 139 z "},"l":{"ha":1389,"x_min":0,"x_max":1250,"o":"m 556 694 l 556 833 l 278 833 l 278 694 l 556 694 m 972 694 l 972 833 l 694 833 l 694 694 l 972 694 m 1111 139 l 1250 139 l 1250 0 l 1111 0 l 1111 139 l 972 139 l 972 278 l 833 278 l 833 417 l 417 417 l 417 278 l 278 278 l 278 139 l 139 139 l 139 0 l 0 0 l 0 139 l 139 139 l 139 278 l 278 278 l 278 417 l 417 417 l 417 556 l 0 556 l 0 833 l 139 833 l 139 972 l 278 972 l 278 1111 l 972 1111 l 972 972 l 1111 972 l 1111 833 l 1250 833 l 1250 556 l 833 556 l 833 417 l 972 417 l 972 278 l 1111 278 l 1111 139 z "},"M":{"ha":1389,"x_min":0,"x_max":1250,"o":"m 556 694 l 556 833 l 278 833 l 278 694 l 556 694 m 972 694 l 972 833 l 694 833 l 694 694 l 972 694 m 556 139 l 556 0 l 278 0 l 278 139 l 139 139 l 139 278 l 278 278 l 278 417 l 417 417 l 417 556 l 0 556 l 0 833 l 139 833 l 139 972 l 278 972 l 278 1111 l 972 1111 l 972 972 l 1111 972 l 1111 833 l 1250 833 l 1250 556 l 833 556 l 833 417 l 972 417 l 972 278 l 1111 278 l 1111 139 l 972 139 l 972 0 l 694 0 l 694 139 l 972 139 l 972 278 l 833 278 l 833 417 l 417 417 l 417 278 l 278 278 l 278 139 l 556 139 z "},"m":{"ha":1389,"x_min":0,"x_max":1250,"o":"m 556 694 l 556 833 l 278 833 l 278 694 l 556 694 m 972 694 l 972 833 l 694 833 l 694 694 l 972 694 m 556 139 l 556 0 l 278 0 l 278 139 l 139 139 l 139 278 l 278 278 l 278 417 l 417 417 l 417 556 l 0 556 l 0 833 l 139 833 l 139 972 l 278 972 l 278 1111 l 972 1111 l 972 972 l 1111 972 l 1111 833 l 1250 833 l 1250 556 l 833 556 l 833 417 l 972 417 l 972 278 l 1111 278 l 1111 139 l 972 139 l 972 0 l 694 0 l 694 139 l 972 139 l 972 278 l 833 278 l 833 417 l 417 417 l 417 278 l 278 278 l 278 139 l 556 139 z "},"N":{"ha":1528,"x_min":0,"x_max":1389,"o":"m 0 278 l 139 278 l 139 139 l 0 139 l 0 278 m 0 417 l 139 417 l 139 278 l 0 278 l 0 417 m 0 556 l 139 556 l 139 417 l 0 417 l 0 556 m 417 139 l 556 139 l 556 0 l 417 0 l 417 139 m 139 556 l 278 556 l 278 417 l 139 417 l 139 556 m 278 278 l 417 278 l 417 139 l 278 139 l 278 278 m 278 417 l 417 417 l 417 278 l 278 278 l 278 417 m 278 556 l 417 556 l 417 417 l 278 417 l 278 556 m 278 694 l 417 694 l 417 556 l 278 556 l 278 694 m 278 833 l 417 833 l 417 694 l 278 694 l 278 833 m 417 417 l 556 417 l 556 278 l 417 278 l 417 417 m 417 556 l 556 556 l 556 417 l 417 417 l 417 556 m 417 833 l 556 833 l 556 694 l 417 694 l 417 833 m 417 972 l 556 972 l 556 833 l 417 833 l 417 972 m 556 417 l 694 417 l 694 278 l 556 278 l 556 417 m 556 556 l 694 556 l 694 417 l 556 417 l 556 556 m 556 694 l 694 694 l 694 556 l 556 556 l 556 694 m 556 833 l 694 833 l 694 694 l 556 694 l 556 833 m 694 417 l 833 417 l 833 278 l 694 278 l 694 417 m 694 556 l 833 556 l 833 417 l 694 417 l 694 556 m 694 694 l 833 694 l 833 556 l 694 556 l 694 694 m 694 833 l 833 833 l 833 694 l 694 694 l 694 833 m 833 417 l 972 417 l 972 278 l 833 278 l 833 417 m 833 556 l 972 556 l 972 417 l 833 417 l 833 556 m 833 833 l 972 833 l 972 694 l 833 694 l 833 833 m 833 972 l 972 972 l 972 833 l 833 833 l 833 972 m 972 278 l 1111 278 l 1111 139 l 972 139 l 972 278 m 972 417 l 1111 417 l 1111 278 l 972 278 l 972 417 m 972 556 l 1111 556 l 1111 417 l 972 417 l 972 556 m 972 694 l 1111 694 l 1111 556 l 972 556 l 972 694 m 972 833 l 1111 833 l 1111 694 l 972 694 l 972 833 m 833 139 l 972 139 l 972 0 l 833 0 l 833 139 m 1111 556 l 1250 556 l 1250 417 l 1111 417 l 1111 556 m 1250 278 l 1389 278 l 1389 139 l 1250 139 l 1250 278 m 1250 417 l 1389 417 l 1389 278 l 1250 278 l 1250 417 m 1250 556 l 1389 556 l 1389 417 l 1250 417 l 1250 556 m 0 694 l 139 694 l 139 556 l 0 556 l 0 694 m 1250 694 l 1389 694 l 1389 556 l 1250 556 l 1250 694 m 278 1111 l 417 1111 l 417 972 l 278 972 l 278 1111 m 972 1111 l 1111 1111 l 1111 972 l 972 972 l 972 1111 m 139 694 l 278 694 l 278 556 l 139 556 l 139 694 m 1111 694 l 1250 694 l 1250 556 l 1111 556 l 1111 694 z "},"n":{"ha":1528,"x_min":0,"x_max":1389,"o":"m 0 278 l 139 278 l 139 139 l 0 139 l 0 278 m 0 417 l 139 417 l 139 278 l 0 278 l 0 417 m 0 556 l 139 556 l 139 417 l 0 417 l 0 556 m 417 139 l 556 139 l 556 0 l 417 0 l 417 139 m 139 556 l 278 556 l 278 417 l 139 417 l 139 556 m 278 278 l 417 278 l 417 139 l 278 139 l 278 278 m 278 417 l 417 417 l 417 278 l 278 278 l 278 417 m 278 556 l 417 556 l 417 417 l 278 417 l 278 556 m 278 694 l 417 694 l 417 556 l 278 556 l 278 694 m 278 833 l 417 833 l 417 694 l 278 694 l 278 833 m 417 417 l 556 417 l 556 278 l 417 278 l 417 417 m 417 556 l 556 556 l 556 417 l 417 417 l 417 556 m 417 833 l 556 833 l 556 694 l 417 694 l 417 833 m 417 972 l 556 972 l 556 833 l 417 833 l 417 972 m 556 417 l 694 417 l 694 278 l 556 278 l 556 417 m 556 556 l 694 556 l 694 417 l 556 417 l 556 556 m 556 694 l 694 694 l 694 556 l 556 556 l 556 694 m 556 833 l 694 833 l 694 694 l 556 694 l 556 833 m 694 417 l 833 417 l 833 278 l 694 278 l 694 417 m 694 556 l 833 556 l 833 417 l 694 417 l 694 556 m 694 694 l 833 694 l 833 556 l 694 556 l 694 694 m 694 833 l 833 833 l 833 694 l 694 694 l 694 833 m 833 417 l 972 417 l 972 278 l 833 278 l 833 417 m 833 556 l 972 556 l 972 417 l 833 417 l 833 556 m 833 833 l 972 833 l 972 694 l 833 694 l 833 833 m 833 972 l 972 972 l 972 833 l 833 833 l 833 972 m 972 278 l 1111 278 l 1111 139 l 972 139 l 972 278 m 972 417 l 1111 417 l 1111 278 l 972 278 l 972 417 m 972 556 l 1111 556 l 1111 417 l 972 417 l 972 556 m 972 694 l 1111 694 l 1111 556 l 972 556 l 972 694 m 972 833 l 1111 833 l 1111 694 l 972 694 l 972 833 m 833 139 l 972 139 l 972 0 l 833 0 l 833 139 m 1111 556 l 1250 556 l 1250 417 l 1111 417 l 1111 556 m 1250 278 l 1389 278 l 1389 139 l 1250 139 l 1250 278 m 1250 417 l 1389 417 l 1389 278 l 1250 278 l 1250 417 m 1250 556 l 1389 556 l 1389 417 l 1250 417 l 1250 556 m 0 694 l 139 694 l 139 556 l 0 556 l 0 694 m 1250 694 l 1389 694 l 1389 556 l 1250 556 l 1250 694 m 278 1111 l 417 1111 l 417 972 l 278 972 l 278 1111 m 972 1111 l 1111 1111 l 1111 972 l 972 972 l 972 1111 m 139 694 l 278 694 l 278 556 l 139 556 l 139 694 m 1111 694 l 1250 694 l 1250 556 l 1111 556 l 1111 694 z "},"O":{"ha":1528,"x_min":0,"x_max":1389,"o":"m 556 694 l 417 694 l 417 417 l 556 417 l 556 694 m 972 694 l 833 694 l 833 417 l 972 417 l 972 694 m 1250 972 l 1389 972 l 1389 556 l 1250 556 l 1250 139 l 1389 139 l 1389 0 l 1111 0 l 1111 278 l 972 278 l 972 139 l 833 139 l 833 278 l 556 278 l 556 139 l 417 139 l 417 278 l 278 278 l 278 0 l 0 0 l 0 139 l 139 139 l 139 556 l 0 556 l 0 972 l 139 972 l 139 694 l 278 694 l 278 833 l 417 833 l 417 972 l 278 972 l 278 1111 l 417 1111 l 417 972 l 556 972 l 556 833 l 833 833 l 833 972 l 972 972 l 972 1111 l 1111 1111 l 1111 972 l 972 972 l 972 833 l 1111 833 l 1111 694 l 1250 694 l 1250 972 z "},"o":{"ha":1528,"x_min":0,"x_max":1389,"o":"m 556 694 l 417 694 l 417 417 l 556 417 l 556 694 m 972 694 l 833 694 l 833 417 l 972 417 l 972 694 m 1250 972 l 1389 972 l 1389 556 l 1250 556 l 1250 139 l 1389 139 l 1389 0 l 1111 0 l 1111 278 l 972 278 l 972 139 l 833 139 l 833 278 l 556 278 l 556 139 l 417 139 l 417 278 l 278 278 l 278 0 l 0 0 l 0 139 l 139 139 l 139 556 l 0 556 l 0 972 l 139 972 l 139 694 l 278 694 l 278 833 l 417 833 l 417 972 l 278 972 l 278 1111 l 417 1111 l 417 972 l 556 972 l 556 833 l 833 833 l 833 972 l 972 972 l 972 1111 l 1111 1111 l 1111 972 l 972 972 l 972 833 l 1111 833 l 1111 694 l 1250 694 l 1250 972 z "},"P":{"ha":1250,"x_min":0,"x_max":1111,"o":"m 417 556 l 417 694 l 139 694 l 139 556 l 417 556 m 833 417 l 694 417 l 694 278 l 417 278 l 417 417 l 278 417 l 278 139 l 833 139 l 833 417 m 972 556 l 972 694 l 694 694 l 694 556 l 972 556 m 972 833 l 1111 833 l 1111 417 l 972 417 l 972 139 l 833 139 l 833 0 l 278 0 l 278 139 l 139 139 l 139 417 l 0 417 l 0 833 l 139 833 l 139 972 l 417 972 l 417 1111 l 694 1111 l 694 972 l 972 972 l 972 833 z "},"Q":{"ha":1250,"x_min":0,"x_max":1111,"o":"m 417 556 l 417 694 l 139 694 l 139 556 l 417 556 m 694 417 l 417 417 l 417 278 l 694 278 l 694 417 m 972 556 l 972 694 l 694 694 l 694 556 l 972 556 m 972 833 l 1111 833 l 1111 417 l 833 417 l 833 278 l 972 278 l 972 139 l 1111 139 l 1111 0 l 972 0 l 972 139 l 833 139 l 833 278 l 694 278 l 694 139 l 417 139 l 417 278 l 278 278 l 278 139 l 139 139 l 139 0 l 0 0 l 0 139 l 139 139 l 139 278 l 278 278 l 278 417 l 0 417 l 0 833 l 139 833 l 139 972 l 417 972 l 417 1111 l 694 1111 l 694 972 l 972 972 l 972 833 z "},"p":{"ha":1250,"x_min":0,"x_max":1111,"o":"m 417 556 l 417 694 l 139 694 l 139 556 l 417 556 m 833 417 l 694 417 l 694 278 l 417 278 l 417 417 l 278 417 l 278 139 l 833 139 l 833 417 m 972 556 l 972 694 l 694 694 l 694 556 l 972 556 m 972 833 l 1111 833 l 1111 417 l 972 417 l 972 139 l 833 139 l 833 0 l 278 0 l 278 139 l 139 139 l 139 417 l 0 417 l 0 833 l 139 833 l 139 972 l 417 972 l 417 1111 l 694 1111 l 694 972 l 972 972 l 972 833 z "},"q":{"ha":1250,"x_min":0,"x_max":1111,"o":"m 417 556 l 417 694 l 139 694 l 139 556 l 417 556 m 694 417 l 417 417 l 417 278 l 694 278 l 694 417 m 972 556 l 972 694 l 694 694 l 694 556 l 972 556 m 972 833 l 1111 833 l 1111 417 l 833 417 l 833 278 l 972 278 l 972 139 l 1111 139 l 1111 0 l 972 0 l 972 139 l 833 139 l 833 278 l 694 278 l 694 139 l 417 139 l 417 278 l 278 278 l 278 139 l 139 139 l 139 0 l 0 0 l 0 139 l 139 139 l 139 278 l 278 278 l 278 417 l 0 417 l 0 833 l 139 833 l 139 972 l 417 972 l 417 1111 l 694 1111 l 694 972 l 972 972 l 972 833 z "},"R":{"ha":1111,"x_min":0,"x_max":972,"o":"m 417 139 l 417 278 l 278 278 l 278 139 l 417 139 m 417 417 l 417 556 l 139 556 l 139 417 l 417 417 m 694 139 l 694 278 l 556 278 l 556 139 l 694 139 m 833 417 l 833 556 l 556 556 l 556 417 l 833 417 m 972 278 l 833 278 l 833 139 l 972 139 l 972 0 l 833 0 l 833 139 l 694 139 l 694 0 l 556 0 l 556 139 l 417 139 l 417 0 l 278 0 l 278 139 l 139 139 l 139 0 l 0 0 l 0 139 l 139 139 l 139 278 l 0 278 l 0 556 l 139 556 l 139 694 l 278 694 l 278 833 l 694 833 l 694 694 l 833 694 l 833 556 l 972 556 l 972 278 z "},"S":{"ha":1389,"x_min":0,"x_max":1250,"o":"m 278 139 l 278 278 l 139 278 l 139 139 l 278 139 m 556 139 l 556 278 l 417 278 l 417 139 l 556 139 m 556 556 l 556 694 l 278 694 l 278 556 l 556 556 m 833 139 l 833 278 l 694 278 l 694 139 l 833 139 m 972 556 l 972 694 l 694 694 l 694 556 l 972 556 m 1111 139 l 1111 278 l 972 278 l 972 139 l 1111 139 m 1111 694 l 1250 694 l 1250 139 l 1111 139 l 1111 0 l 972 0 l 972 139 l 833 139 l 833 0 l 694 0 l 694 139 l 556 139 l 556 0 l 417 0 l 417 139 l 278 139 l 278 0 l 139 0 l 139 139 l 0 139 l 0 694 l 139 694 l 139 833 l 278 833 l 278 972 l 417 972 l 417 833 l 833 833 l 833 972 l 972 972 l 972 833 l 1111 833 l 1111 694 z "},"r":{"ha":1111,"x_min":0,"x_max":972,"o":"m 417 139 l 417 278 l 278 278 l 278 139 l 417 139 m 417 417 l 417 556 l 139 556 l 139 417 l 417 417 m 694 139 l 694 278 l 556 278 l 556 139 l 694 139 m 833 417 l 833 556 l 556 556 l 556 417 l 833 417 m 972 278 l 833 278 l 833 139 l 972 139 l 972 0 l 833 0 l 833 139 l 694 139 l 694 0 l 556 0 l 556 139 l 417 139 l 417 0 l 278 0 l 278 139 l 139 139 l 139 0 l 0 0 l 0 139 l 139 139 l 139 278 l 0 278 l 0 556 l 139 556 l 139 694 l 278 694 l 278 833 l 694 833 l 694 694 l 833 694 l 833 556 l 972 556 l 972 278 z "},"s":{"ha":1389,"x_min":0,"x_max":1250,"o":"m 278 139 l 278 278 l 139 278 l 139 139 l 278 139 m 556 139 l 556 278 l 417 278 l 417 139 l 556 139 m 556 556 l 556 694 l 278 694 l 278 556 l 556 556 m 833 139 l 833 278 l 694 278 l 694 139 l 833 139 m 972 556 l 972 694 l 694 694 l 694 556 l 972 556 m 1111 139 l 1111 278 l 972 278 l 972 139 l 1111 139 m 1111 694 l 1250 694 l 1250 139 l 1111 139 l 1111 0 l 972 0 l 972 139 l 833 139 l 833 0 l 694 0 l 694 139 l 556 139 l 556 0 l 417 0 l 417 139 l 278 139 l 278 0 l 139 0 l 139 139 l 0 139 l 0 694 l 139 694 l 139 833 l 278 833 l 278 972 l 417 972 l 417 833 l 833 833 l 833 972 l 972 972 l 972 833 l 1111 833 l 1111 694 z "},"T":{"ha":1250,"x_min":0,"x_max":1111,"o":"m 417 694 l 417 833 l 278 833 l 278 694 l 417 694 m 694 417 l 694 556 l 417 556 l 417 417 l 694 417 m 833 694 l 833 833 l 694 833 l 694 694 l 833 694 m 972 833 l 1111 833 l 1111 0 l 833 0 l 833 139 l 972 139 l 972 556 l 833 556 l 833 417 l 694 417 l 694 278 l 417 278 l 417 417 l 278 417 l 278 556 l 139 556 l 139 139 l 278 139 l 278 0 l 0 0 l 0 833 l 139 833 l 139 972 l 278 972 l 278 1111 l 417 1111 l 417 972 l 694 972 l 694 1111 l 833 1111 l 833 972 l 972 972 l 972 833 z "},"U":{"ha":1250,"x_min":0,"x_max":1111,"o":"m 417 694 l 278 694 l 278 556 l 417 556 l 417 694 m 833 694 l 694 694 l 694 556 l 833 556 l 833 694 m 972 417 l 833 417 l 833 278 l 694 278 l 694 139 l 417 139 l 417 278 l 278 278 l 278 417 l 139 417 l 139 139 l 278 139 l 278 0 l 0 0 l 0 833 l 139 833 l 139 694 l 278 694 l 278 833 l 417 833 l 417 972 l 278 972 l 278 1111 l 417 1111 l 417 972 l 694 972 l 694 1111 l 833 1111 l 833 972 l 694 972 l 694 833 l 833 833 l 833 694 l 972 694 l 972 833 l 1111 833 l 1111 0 l 833 0 l 833 139 l 972 139 l 972 417 z "},"t":{"ha":1250,"x_min":0,"x_max":1111,"o":"m 417 694 l 417 833 l 278 833 l 278 694 l 417 694 m 694 417 l 694 556 l 417 556 l 417 417 l 694 417 m 833 694 l 833 833 l 694 833 l 694 694 l 833 694 m 972 833 l 1111 833 l 1111 0 l 833 0 l 833 139 l 972 139 l 972 556 l 833 556 l 833 417 l 694 417 l 694 278 l 417 278 l 417 417 l 278 417 l 278 556 l 139 556 l 139 139 l 278 139 l 278 0 l 0 0 l 0 833 l 139 833 l 139 972 l 278 972 l 278 1111 l 417 1111 l 417 972 l 694 972 l 694 1111 l 833 1111 l 833 972 l 972 972 l 972 833 z "},"u":{"ha":1250,"x_min":0,"x_max":1111,"o":"m 417 694 l 278 694 l 278 556 l 417 556 l 417 694 m 833 694 l 694 694 l 694 556 l 833 556 l 833 694 m 972 417 l 833 417 l 833 278 l 694 278 l 694 139 l 417 139 l 417 278 l 278 278 l 278 417 l 139 417 l 139 139 l 278 139 l 278 0 l 0 0 l 0 833 l 139 833 l 139 694 l 278 694 l 278 833 l 417 833 l 417 972 l 278 972 l 278 1111 l 417 1111 l 417 972 l 694 972 l 694 1111 l 833 1111 l 833 972 l 694 972 l 694 833 l 833 833 l 833 694 l 972 694 l 972 833 l 1111 833 l 1111 0 l 833 0 l 833 139 l 972 139 l 972 417 z "},"V":{"ha":1747,"x_min":11,"x_max":1719,"o":"m 1719 265 l 1515 265 l 1515 147 l 1403 147 l 1403 28 l 1286 28 l 1286 147 l 1174 147 l 1174 265 l 994 265 l 994 147 l 754 147 l 754 265 l 547 265 l 547 147 l 436 147 l 436 28 l 318 28 l 318 147 l 206 147 l 206 265 l 11 265 l 11 381 l 94 381 l 94 500 l 206 500 l 206 600 l 318 600 l 318 719 l 542 719 l 542 819 l 1181 819 l 1181 719 l 1403 719 l 1403 600 l 1515 600 l 1515 500 l 1626 500 l 1626 381 l 1719 381 l 1719 265 m 436 383 l 436 481 l 326 481 l 326 383 l 436 383 m 736 383 l 736 481 l 626 481 l 626 383 l 736 383 m 1092 383 l 1092 481 l 982 481 l 982 383 l 1092 383 m 1392 383 l 1392 481 l 1282 481 l 1282 383 l 1392 383 z "},"v":{"ha":1747,"x_min":11,"x_max":1719,"o":"m 1719 265 l 1515 265 l 1515 147 l 1403 147 l 1403 28 l 1286 28 l 1286 147 l 1174 147 l 1174 265 l 994 265 l 994 147 l 754 147 l 754 265 l 547 265 l 547 147 l 436 147 l 436 28 l 318 28 l 318 147 l 206 147 l 206 265 l 11 265 l 11 381 l 94 381 l 94 500 l 206 500 l 206 600 l 318 600 l 318 719 l 542 719 l 542 819 l 1181 819 l 1181 719 l 1403 719 l 1403 600 l 1515 600 l 1515 500 l 1626 500 l 1626 381 l 1719 381 l 1719 265 m 436 383 l 436 481 l 326 481 l 326 383 l 436 383 m 736 383 l 736 481 l 626 481 l 626 383 l 736 383 m 1092 383 l 1092 481 l 982 481 l 982 383 l 1092 383 m 1392 383 l 1392 481 l 1282 481 l 1282 383 l 1392 383 z "},"W":{"ha":1111,"x_min":4,"x_max":1019,"o":"m 1019 51 l 4 51 l 4 403 l 83 403 l 83 490 l 408 490 l 408 694 l 479 694 l 479 771 l 543 771 l 543 694 l 614 694 l 614 490 l 949 490 l 949 403 l 1019 403 l 1019 51 z "},"w":{"ha":1111,"x_min":4,"x_max":1019,"o":"m 1019 51 l 4 51 l 4 403 l 83 403 l 83 490 l 408 490 l 408 694 l 479 694 l 479 771 l 543 771 l 543 694 l 614 694 l 614 490 l 949 490 l 949 403 l 1019 403 l 1019 51 z "},"X":{"ha":1481,"x_min":1,"x_max":1464,"o":"m 1464 -11 l 1354 -11 l 1354 121 l 1464 121 l 1464 -11 m 938 482 l 829 482 l 829 615 l 938 615 l 938 482 m 1264 -3 l 1153 -3 l 1153 131 l 1042 131 l 1042 264 l 1153 264 l 1153 129 l 1264 129 l 1264 -3 m 564 700 l 454 700 l 454 832 l 564 832 l 564 700 m 742 482 l 631 482 l 631 615 l 742 615 l 742 482 m 1033 -3 l 93 -3 l 93 99 l 192 99 l 192 197 l 349 197 l 349 308 l 458 308 l 458 196 l 560 196 l 560 383 l 453 383 l 454 622 l 564 622 l 564 389 l 747 389 l 747 197 l 829 197 l 829 389 l 1035 389 l 1033 265 l 938 265 l 938 99 l 1033 99 l 1033 -3 m 294 364 l 185 364 l 185 496 l 294 496 l 294 364 m 110 169 l 1 169 l 1 301 l 110 301 l 110 169 z "},"x":{"ha":1481,"x_min":1,"x_max":1464,"o":"m 1464 -11 l 1354 -11 l 1354 121 l 1464 121 l 1464 -11 m 938 482 l 829 482 l 829 615 l 938 615 l 938 482 m 1264 -3 l 1153 -3 l 1153 131 l 1042 131 l 1042 264 l 1153 264 l 1153 129 l 1264 129 l 1264 -3 m 564 700 l 454 700 l 454 832 l 564 832 l 564 700 m 742 482 l 631 482 l 631 615 l 742 615 l 742 482 m 1033 -3 l 93 -3 l 93 99 l 192 99 l 192 197 l 349 197 l 349 308 l 458 308 l 458 196 l 560 196 l 560 383 l 453 383 l 454 622 l 564 622 l 564 389 l 747 389 l 747 197 l 829 197 l 829 389 l 1035 389 l 1033 265 l 938 265 l 938 99 l 1033 99 l 1033 -3 m 294 364 l 185 364 l 185 496 l 294 496 l 294 364 m 110 169 l 1 169 l 1 301 l 110 301 l 110 169 z "},"Y":{"ha":519,"x_min":58,"x_max":450,"o":"m 450 332 l 319 332 l 319 231 l 192 231 l 192 131 l 58 131 l 58 229 l 189 229 l 189 331 l 321 331 l 321 432 l 186 432 l 186 532 l 58 532 l 58 632 l 186 632 l 186 733 l 314 733 l 314 835 l 450 835 l 450 736 l 319 736 l 319 635 l 192 635 l 192 533 l 319 533 l 319 431 l 450 431 l 450 332 z "},"y":{"ha":519,"x_min":58,"x_max":450,"o":"m 450 332 l 319 332 l 319 231 l 192 231 l 192 131 l 58 131 l 58 229 l 189 229 l 189 331 l 321 331 l 321 432 l 186 432 l 186 532 l 58 532 l 58 632 l 186 632 l 186 733 l 314 733 l 314 835 l 450 835 l 450 736 l 319 736 l 319 635 l 192 635 l 192 533 l 319 533 l 319 431 l 450 431 l 450 332 z "},"Z":{"ha":1360,"x_min":17,"x_max":1340,"o":"m 1294 692 l 1172 692 l 1172 582 l 1047 582 l 1047 472 l 919 472 l 919 586 l 1042 586 l 1042 696 l 1168 696 l 1168 806 l 1294 806 l 1294 692 m 1340 378 l 1103 378 l 1103 492 l 1340 492 l 1340 378 m 975 753 l 853 753 l 853 642 l 725 642 l 725 757 l 847 757 l 847 867 l 975 867 l 975 753 m 1283 58 l 1158 58 l 1158 169 l 1039 169 l 1039 285 l 914 285 l 914 399 l 1038 399 l 1038 283 l 1164 283 l 1164 174 l 1283 174 l 1283 58 m 632 642 l 506 642 l 506 753 l 382 753 l 382 867 l 508 867 l 508 757 l 632 757 l 632 642 m 975 86 l 851 86 l 850 192 l 731 192 l 731 306 l 854 306 l 854 201 l 975 201 l 975 86 m 438 472 l 311 472 l 311 582 l 186 582 l 186 692 l 63 692 l 63 806 l 189 806 l 189 696 l 314 696 l 314 586 l 438 586 l 438 472 m 626 192 l 507 192 l 507 86 l 382 86 l 382 201 l 503 201 l 503 306 l 626 306 l 626 192 m 254 378 l 17 378 l 17 492 l 254 492 l 254 378 m 443 285 l 318 285 l 318 169 l 197 169 l 197 58 l 74 58 l 74 174 l 193 174 l 193 283 l 319 283 l 319 399 l 443 399 l 443 285 z "},"z":{"ha":1360,"x_min":17,"x_max":1340,"o":"m 1294 692 l 1172 692 l 1172 582 l 1047 582 l 1047 472 l 919 472 l 919 586 l 1042 586 l 1042 696 l 1168 696 l 1168 806 l 1294 806 l 1294 692 m 1340 378 l 1103 378 l 1103 492 l 1340 492 l 1340 378 m 975 753 l 853 753 l 853 642 l 725 642 l 725 757 l 847 757 l 847 867 l 975 867 l 975 753 m 1283 58 l 1158 58 l 1158 169 l 1039 169 l 1039 285 l 914 285 l 914 399 l 1038 399 l 1038 283 l 1164 283 l 1164 174 l 1283 174 l 1283 58 m 632 642 l 506 642 l 506 753 l 382 753 l 382 867 l 508 867 l 508 757 l 632 757 l 632 642 m 975 86 l 851 86 l 850 192 l 731 192 l 731 306 l 854 306 l 854 201 l 975 201 l 975 86 m 438 472 l 311 472 l 311 582 l 186 582 l 186 692 l 63 692 l 63 806 l 189 806 l 189 696 l 314 696 l 314 586 l 438 586 l 438 472 m 626 192 l 507 192 l 507 86 l 382 86 l 382 201 l 503 201 l 503 306 l 626 306 l 626 192 m 254 378 l 17 378 l 17 492 l 254 492 l 254 378 m 443 285 l 318 285 l 318 169 l 197 169 l 197 58 l 74 58 l 74 174 l 193 174 l 193 283 l 319 283 l 319 399 l 443 399 l 443 285 z "},"[":{"ha":811,"x_min":32,"x_max":757,"o":"m 757 124 l 494 124 l 494 53 l 428 53 l 428 -28 l 357 -28 l 357 -129 q 342 -137 353 -139 l 39 -135 l 39 367 l 106 367 l 104 447 l 39 449 l 39 510 l 104 511 l 104 447 l 172 447 l 172 367 l 233 367 l 233 447 l 303 447 l 303 511 l 397 510 l 399 568 l 303 568 l 303 701 l 233 703 l 233 769 l 303 769 l 303 879 l 757 879 l 757 781 l 700 781 l 701 704 l 757 706 l 757 444 l 700 444 l 700 367 l 757 367 l 757 124 m 101 565 l 32 565 l 32 636 l 101 636 l 101 565 m 410 699 l 410 769 l 303 769 l 303 699 l 410 699 m 378 369 l 378 443 l 303 443 l 303 369 l 378 369 z "},"]":{"ha":786,"x_min":19,"x_max":740,"o":"m 740 -125 l 275 -125 l 275 3 l 203 3 l 203 75 l 136 75 l 136 136 l 19 136 l 19 288 l 71 288 l 71 386 l 19 386 l 19 892 l 460 892 l 460 864 l 503 864 l 503 828 l 526 828 l 526 789 l 568 789 l 568 747 l 619 747 l 619 706 l 664 706 l 664 661 l 708 661 l 708 615 l 740 615 l 740 -125 z "},"{":{"ha":811,"x_min":32,"x_max":757,"o":"m 757 124 l 494 124 l 494 53 l 428 53 l 428 -28 l 357 -28 l 357 -129 q 342 -137 353 -139 l 39 -135 l 39 367 l 106 367 l 104 447 l 39 449 l 39 510 l 104 511 l 104 447 l 172 447 l 172 367 l 233 367 l 233 447 l 303 447 l 303 511 l 397 510 l 399 568 l 303 568 l 303 701 l 233 703 l 233 769 l 303 769 l 303 879 l 757 879 l 757 781 l 700 781 l 701 704 l 757 706 l 757 444 l 700 444 l 700 367 l 757 367 l 757 124 m 101 565 l 32 565 l 32 636 l 101 636 l 101 565 m 410 699 l 410 769 l 303 769 l 303 699 l 410 699 m 378 369 l 378 443 l 303 443 l 303 369 l 378 369 z "},"}":{"ha":786,"x_min":19,"x_max":740,"o":"m 740 -125 l 275 -125 l 275 3 l 203 3 l 203 75 l 136 75 l 136 136 l 19 136 l 19 288 l 71 288 l 71 386 l 19 386 l 19 892 l 460 892 l 460 864 l 503 864 l 503 828 l 526 828 l 526 789 l 568 789 l 568 747 l 619 747 l 619 706 l 664 706 l 664 661 l 708 661 l 708 615 l 740 615 l 740 -125 z "},"<":{"ha":811,"x_min":32,"x_max":757,"o":"m 757 124 l 494 124 l 494 53 l 428 53 l 428 -28 l 357 -28 l 357 -129 q 342 -137 353 -139 l 39 -135 l 39 367 l 106 367 l 104 447 l 39 449 l 39 510 l 104 511 l 104 447 l 172 447 l 172 367 l 233 367 l 233 447 l 303 447 l 303 511 l 397 510 l 399 568 l 303 568 l 303 701 l 233 703 l 233 769 l 303 769 l 303 879 l 757 879 l 757 781 l 700 781 l 701 704 l 757 706 l 757 444 l 700 444 l 700 367 l 757 367 l 757 124 m 101 565 l 32 565 l 32 636 l 101 636 l 101 565 m 410 699 l 410 769 l 303 769 l 303 699 l 410 699 m 378 369 l 378 443 l 303 443 l 303 369 l 378 369 z "},">":{"ha":786,"x_min":19,"x_max":740,"o":"m 740 -125 l 275 -125 l 275 3 l 203 3 l 203 75 l 136 75 l 136 136 l 19 136 l 19 288 l 71 288 l 71 386 l 19 386 l 19 892 l 460 892 l 460 864 l 503 864 l 503 828 l 526 828 l 526 789 l 568 789 l 568 747 l 619 747 l 619 706 l 664 706 l 664 661 l 708 661 l 708 615 l 740 615 l 740 -125 z "},"(":{"ha":811,"x_min":32,"x_max":757,"o":"m 757 124 l 494 124 l 494 53 l 428 53 l 428 -28 l 357 -28 l 357 -129 q 342 -137 353 -139 l 39 -135 l 39 367 l 106 367 l 104 447 l 39 449 l 39 510 l 104 511 l 104 447 l 172 447 l 172 367 l 233 367 l 233 447 l 303 447 l 303 511 l 397 510 l 399 568 l 303 568 l 303 701 l 233 703 l 233 769 l 303 769 l 303 879 l 757 879 l 757 781 l 700 781 l 701 704 l 757 706 l 757 444 l 700 444 l 700 367 l 757 367 l 757 124 m 101 565 l 32 565 l 32 636 l 101 636 l 101 565 m 410 699 l 410 769 l 303 769 l 303 699 l 410 699 m 378 369 l 378 443 l 303 443 l 303 369 l 378 369 z "},")":{"ha":786,"x_min":19,"x_max":740,"o":"m 740 -125 l 275 -125 l 275 3 l 203 3 l 203 75 l 136 75 l 136 136 l 19 136 l 19 288 l 71 288 l 71 386 l 19 386 l 19 892 l 460 892 l 460 864 l 503 864 l 503 828 l 526 828 l 526 789 l 568 789 l 568 747 l 619 747 l 619 706 l 664 706 l 664 661 l 708 661 l 708 615 l 740 615 l 740 -125 z "}}}
